<svg width="21" height="20" viewBox="0 0 21 20" fill="none" xmlns="http://www.w3.org/2000/svg">
<path d="M19.0527 2.99219C19.0527 2.16219 18.3827 1.49219 17.5527 1.49219H3.55273C2.72273 1.49219 2.05273 2.16219 2.05273 2.99219V10.9922H5.79273C6.55273 10.9922 7.24273 11.4122 7.58273 12.0922L7.71273 12.3522C8.22273 13.3522 9.25273 13.9922 10.3827 13.9922H10.7027C11.8327 13.9922 12.8627 13.3522 13.3827 12.3522L13.5127 12.0822C13.8527 11.4122 14.5427 10.9822 15.2927 10.9822H19.0527V2.99219ZM0.552734 2.99219C0.552734 1.33219 1.89273 -0.0078125 3.55273 -0.0078125H17.5527C19.2127 -0.0078125 20.5527 1.33219 20.5527 2.99219V16.9922C20.5527 18.6522 19.2127 19.9922 17.5527 19.9922H3.55273C1.89273 19.9922 0.552734 18.6522 0.552734 16.9922V2.99219Z" fill="#0D68C5"/>
</svg>
