<svg width="19" height="20" viewBox="0 0 19 20" fill="none" xmlns="http://www.w3.org/2000/svg">
<path d="M5.10742 0C5.51742 0 5.85742 0.34 5.85742 0.75V2H13.3574V0.75C13.3574 0.34 13.6974 0 14.1074 0C14.5174 0 14.8574 0.34 14.8574 0.75V2H15.3574C17.1574 2 18.6074 3.46 18.6074 5.25V16.75C18.6074 18.55 17.1474 20 15.3574 20H3.85742C2.05742 20 0.607422 18.54 0.607422 16.75V5.25C0.607422 3.45 2.06742 2 3.85742 2H4.35742V0.75C4.35742 0.34 4.69742 0 5.10742 0ZM3.85742 3.5C2.88742 3.5 2.10742 4.28 2.10742 5.25V6.5H17.1074V5.25C17.1074 4.28 16.3274 3.5 15.3574 3.5H3.85742ZM2.10742 16.75C2.10742 17.72 2.88742 18.5 3.85742 18.5H15.3574C16.3274 18.5 17.1074 17.72 17.1074 16.75V8H2.10742V16.75ZM11.6074 12C11.0574 12 10.6074 12.45 10.6074 13V16C10.6074 16.55 11.0574 17 11.6074 17H14.6074C15.1574 17 15.6074 16.55 15.6074 16V13C15.6074 12.45 15.1574 12 14.6074 12H11.6074Z" fill="white"/>
</svg>
