<svg width="16" height="17" viewBox="0 0 16 17" fill="none" xmlns="http://www.w3.org/2000/svg">
<g clip-path="url(#clip0_1243_4154)">
<path d="M6.75032 5C6.75032 4.66848 6.88202 4.35054 7.11644 4.11612C7.35086 3.8817 7.6688 3.75 8.00032 3.75C8.33184 3.75 8.64979 3.8817 8.88421 4.11612C9.11863 4.35054 9.25032 4.66848 9.25032 5C9.25032 5.33152 9.11863 5.64946 8.88421 5.88388C8.64979 6.1183 8.33184 6.25 8.00032 6.25C7.6688 6.25 7.35086 6.1183 7.11644 5.88388C6.88202 5.64946 6.75032 5.33152 6.75032 5ZM8.00032 2.25C6.48032 2.25 5.25032 3.48 5.25032 5C5.25032 6.52 6.48032 7.75 8.00032 7.75C9.52032 7.75 10.7503 6.52 10.7503 5C10.7503 3.48 9.52032 2.25 8.00032 2.25ZM8.00032 10.25C9.81032 10.25 11.3303 11.54 11.6803 13.25H4.32032C4.67032 11.54 6.19032 10.25 8.00032 10.25ZM8.00032 8.75C5.30032 8.75 3.07032 10.79 2.78032 13.42C2.70032 14.19 3.33032 14.75 4.00032 14.75H12.0003C12.6703 14.75 13.3003 14.19 13.2203 13.42C12.9203 10.79 10.7003 8.75 8.00032 8.75Z" fill="#65686F"/>
</g>
<defs>
<clipPath id="clip0_1243_4154">
<rect width="16" height="16" fill="white" transform="translate(0 0.5)"/>
</clipPath>
</defs>
</svg>
