<svg width="16" height="17" viewBox="0 0 16 17" fill="none" xmlns="http://www.w3.org/2000/svg">
<g clip-path="url(#clip0_109_9090)">
<g clip-path="url(#clip1_109_9090)">
<path d="M8 0.628906C8.41 0.628906 8.75 0.968906 8.75 1.37891V2.17891C11.74 2.51891 14.11 4.87891 14.45 7.87891H15.25C15.4489 7.87891 15.6397 7.95792 15.7803 8.09858C15.921 8.23923 16 8.42999 16 8.62891C16 8.82782 15.921 9.01858 15.7803 9.15924C15.6397 9.29989 15.4489 9.37891 15.25 9.37891H14.45C14.2845 10.8336 13.6308 12.1892 12.5956 13.2245C11.5603 14.2597 10.2047 14.9134 8.75 15.0789V15.8789C8.75 16.2889 8.41 16.6289 8 16.6289C7.59 16.6289 7.25 16.2889 7.25 15.8789V15.0789C4.25 14.7389 1.89 12.3689 1.55 9.37891H0.75C0.34 9.37891 0 9.02891 0 8.62891C0 8.20891 0.34 7.87891 0.75 7.87891H1.55C1.89 4.87891 4.26 2.51891 7.25 2.17891V1.37891C7.25 0.968906 7.59 0.628906 8 0.628906ZM13 8.62891C13 5.86891 10.76 3.62891 8 3.62891C5.24 3.62891 3 5.86891 3 8.62891C3 11.3889 5.24 13.6289 8 13.6289C10.76 13.6289 13 11.3889 13 8.62891ZM8 11.6289C9.66 11.6289 11 10.2889 11 8.62891C11 6.96891 9.66 5.62891 8 5.62891C6.34 5.62891 5 6.96891 5 8.62891C5 10.2889 6.34 11.6289 8 11.6289Z" fill="#65686F"/>
</g>
</g>
<defs>
<clipPath id="clip0_109_9090">
<rect width="16" height="16" fill="white" transform="translate(0 0.628906)"/>
</clipPath>
<clipPath id="clip1_109_9090">
<rect width="16" height="16" fill="white" transform="translate(0 0.628906)"/>
</clipPath>
</defs>
</svg>
