<svg width="16" height="17" viewBox="0 0 16 17" fill="none" xmlns="http://www.w3.org/2000/svg">
<path d="M4.75 1C5.16 1 5.5 1.34 5.5 1.75V2.5H10.5V1.75C10.5 1.34 10.84 1 11.25 1C11.66 1 12 1.34 12 1.75V2.5H12.25C13.49 2.5 14.5 3.5 14.5 4.75V13.25C14.5 14.49 13.5 15.5 12.25 15.5H3.75C2.51 15.5 1.5 14.5 1.5 13.25V4.75C1.5 3.51 2.5 2.5 3.75 2.5H4V1.75C4 1.34 4.34 1 4.75 1ZM3.75 4C3.34 4 3 4.34 3 4.75V6H13V4.75C13 4.34 12.66 4 12.25 4H3.75ZM3 13.25C3 13.66 3.34 14 3.75 14H12.25C12.66 14 13 13.66 13 13.25V7.5H3V13.25ZM9.5 10H11.5C11.78 10 12 10.22 12 10.5V12.5C12 12.78 11.78 13 11.5 13H9.5C9.22 13 9 12.78 9 12.5V10.5C9 10.22 9.22 10 9.5 10Z" fill="#65686F"/>
</svg>
