<svg width="16" height="17" viewBox="0 0 16 17" fill="none" xmlns="http://www.w3.org/2000/svg">
<g clip-path="url(#clip0_1243_4148)">
<path d="M1 2.5C1 1.95 1.45 1.5 2 1.5H9C9.55 1.5 10 1.95 10 2.5V5.5H14C14.55 5.5 15 5.95 15 6.5V14.5C15 15.05 14.55 15.5 14 15.5H2C1.45 15.5 1 15.05 1 14.5V2.5ZM10 7V14H13.5V7H10ZM8.5 3H2.5V14H8.5V3ZM3.5 5.25C3.5 5.11 3.61 5 3.75 5H4.75C4.89 5 5 5.11 5 5.25V7.25C5 7.39 4.89 7.5 4.75 7.5H3.75C3.61 7.5 3.5 7.39 3.5 7.25V5.25ZM6.25 5C6.11 5 6 5.11 6 5.25V7.25C6 7.39 6.11 7.5 6.25 7.5H7.25C7.39 7.5 7.5 7.39 7.5 7.25V5.25C7.5 5.11 7.39 5 7.25 5H6.25ZM3.5 9.75C3.5 9.61 3.61 9.5 3.75 9.5H4.75C4.89 9.5 5 9.61 5 9.75V11.75C5 11.89 4.89 12 4.75 12H3.75C3.61 12 3.5 11.89 3.5 11.75V9.75ZM6.25 9.5C6.11 9.5 6 9.61 6 9.75V11.75C6 11.89 6.11 12 6.25 12H7.25C7.39 12 7.5 11.89 7.5 11.75V9.75C7.5 9.61 7.39 9.5 7.25 9.5H6.25ZM12.75 8.75H10.75C10.61 8.75 10.5 8.86 10.5 9V9.75C10.5 9.89 10.61 10 10.75 10H12.75C12.89 10 13 9.89 13 9.75V9C13 8.86 12.89 8.75 12.75 8.75ZM10.75 11C10.61 11 10.5 11.11 10.5 11.25V12C10.5 12.14 10.61 12.25 10.75 12.25H12.75C12.89 12.25 13 12.14 13 12V11.25C13 11.11 12.89 11 12.75 11H10.75Z" fill="#65686F"/>
</g>
<defs>
<clipPath id="clip0_1243_4148">
<rect width="16" height="16" fill="white" transform="translate(0 0.5)"/>
</clipPath>
</defs>
</svg>
