<svg width="25" height="24" viewBox="0 0 25 24" fill="none" xmlns="http://www.w3.org/2000/svg">
<g clip-path="url(#clip0_1243_3781)">
<path d="M7.10685 13.5016C8.17685 13.5016 9.04685 12.6216 9.04685 11.5416C9.04685 10.4616 8.17685 9.60156 7.10685 9.60156C6.03685 9.60156 5.16685 10.4716 5.16685 11.5516C5.16685 12.6316 6.03685 13.5116 7.10685 13.5116V13.5016ZM7.10685 14.9816C5.08685 14.9816 3.79685 16.3216 3.60685 18.0616C3.58685 18.3016 3.78685 18.5016 4.02685 18.5016H10.1868C10.4268 18.5016 10.6268 18.3016 10.6068 18.0616C10.4168 16.3216 9.12685 14.9816 7.10685 14.9816ZM12.3568 12.0016C11.9468 12.0016 11.6068 12.3416 11.6068 12.7516C11.6068 13.1616 11.9468 13.5016 12.3568 13.5016H17.8568C18.2668 13.5016 18.6068 13.1616 18.6068 12.7516C18.6068 12.3416 18.2668 12.0016 17.8568 12.0016H12.3568ZM11.6068 15.7516C11.6068 15.3416 11.9468 15.0016 12.3568 15.0016H15.8568C16.2668 15.0016 16.6068 15.3416 16.6068 15.7516C16.6068 16.1616 16.2668 16.5016 15.8568 16.5016H12.3568C11.9468 16.5016 11.6068 16.1616 11.6068 15.7516Z" fill="white"/>
<path d="M6.35742 2.5C4.83742 2.5 3.60742 3.73 3.60742 5.25V6.5C1.94742 6.5 0.607422 7.76 0.607422 9.31V18.69C0.607422 20.24 1.94742 21.5 3.60742 21.5H18.6074C20.2674 21.5 21.6074 20.24 21.6074 18.69V17.5H21.8574C23.3774 17.5 24.6074 16.27 24.6074 14.75V5.25C24.6074 3.73 23.3774 2.5 21.8574 2.5H6.35742ZM21.6074 16V9.31C21.6074 7.76 20.2674 6.5 18.6074 6.5H5.10742V5.25C5.10742 4.56 5.66742 4 6.35742 4H21.8574C22.5474 4 23.1074 4.56 23.1074 5.25V14.75C23.1074 15.44 22.5474 16 21.8574 16H21.6074ZM2.10742 18.69V9.3C2.10742 8.53 2.77742 7.9 3.60742 7.9H18.6074C19.4374 7.9 20.1074 8.53 20.1074 9.3V18.68C20.1074 19.45 19.4374 20.08 18.6074 20.08H3.60742C2.77742 20.08 2.10742 19.45 2.10742 18.68V18.69Z" fill="white"/>
</g>
<defs>
<clipPath id="clip0_1243_3781">
<rect width="24" height="24" fill="white" transform="translate(0.607422)"/>
</clipPath>
</defs>
</svg>
