<svg width="16" height="17" viewBox="0 0 16 17" fill="none" xmlns="http://www.w3.org/2000/svg">
<g clip-path="url(#clip0_1243_4166)">
<path d="M13.5 8.37109C13.5 11.4111 11.04 13.8711 8 13.8711C4.96 13.8711 2.5 11.4111 2.5 8.37109C2.5 5.33109 4.96 2.87109 8 2.87109C11.04 2.87109 13.5 5.33109 13.5 8.37109ZM8 15.3711C11.87 15.3711 15 12.2411 15 8.37109C15 4.50109 11.87 1.37109 8 1.37109C4.13 1.37109 1 4.50109 1 8.37109C1 12.2411 4.13 15.3711 8 15.3711ZM7.27 12.2711C7.27 12.47 7.34902 12.6608 7.48967 12.8014C7.63032 12.9421 7.82109 13.0211 8.02 13.0211C8.21891 13.0211 8.40968 12.9421 8.55033 12.8014C8.69098 12.6608 8.77 12.47 8.77 12.2711V11.7711C9.7 11.5011 10.45 10.7811 10.45 9.75109C10.45 9.45109 10.39 9.15109 10.23 8.87109C10.083 8.61712 9.88566 8.39591 9.65 8.22109C9.23 7.90109 8.83 7.77109 8.45 7.65109L8.28 7.60109L7.95 7.50109H7.91L7.65 7.42109L7.35 7.28109L7.24 7.21109L7.23 7.20109C7.13 7.12109 7.1 7.07109 7.08 7.04109C7.07 7.01109 7.05 6.97109 7.05 6.86109C7.05 6.68109 7.3 6.26109 8.01 6.22109H8.07C8.48 6.24109 8.71 6.35109 8.84 6.43109C8.96 6.51109 9.03 6.60109 9.06 6.66109C9.28 7.01109 9.75 7.12109 10.1 6.90109C10.45 6.68109 10.56 6.22109 10.34 5.87109C10.24 5.70109 10.03 5.42109 9.66 5.17109C9.41 5.01109 9.11 4.88109 8.75 4.80109V4.47109C8.75 4.06109 8.41 3.72109 8 3.72109C7.59 3.72109 7.25 4.06109 7.25 4.47109V4.84109C6.33 5.11109 5.55 5.82109 5.55 6.86109C5.55 7.16109 5.6 7.45109 5.75 7.73109C5.89 8.01109 6.1 8.23109 6.34 8.41109L6.62 8.58109C6.74 8.65109 6.92 8.75109 7.12 8.82109C7.27 8.88109 7.42 8.92109 7.54 8.95109L7.6 8.97109L7.82 9.03109L8.01 9.09109C8.4 9.21109 8.53 9.25109 8.73 9.41109C8.86 9.51109 8.91 9.57109 8.93 9.61109C8.93 9.62109 8.95 9.66109 8.95 9.75109C8.95 9.95109 8.72 10.3711 8 10.3911H7.93C7.52 10.3711 7.29 10.2611 7.16 10.1911C7.07219 10.1257 6.99754 10.0443 6.94 9.95109C6.83297 9.78245 6.66385 9.66272 6.46922 9.61781C6.27459 9.5729 6.07011 9.60641 5.9 9.71109C5.55 9.93109 5.44 10.3911 5.66 10.7511C5.76 10.9111 5.97 11.1911 6.34 11.4411C6.59 11.6011 6.9 11.7411 7.27 11.8111V12.2711Z" fill="#65686F"/>
</g>
<defs>
<clipPath id="clip0_1243_4166">
<rect width="16" height="16" fill="white" transform="translate(0 0.371094)"/>
</clipPath>
</defs>
</svg>
