<svg width="10" height="6" viewBox="0 0 10 6" fill="none" xmlns="http://www.w3.org/2000/svg">
<path d="M1.20001 0.871087C1.10215 0.872462 1.00684 0.902528 0.925901 0.957558C0.844964 1.01259 0.781957 1.09016 0.744692 1.18066C0.707427 1.27116 0.697543 1.37061 0.716264 1.46668C0.734984 1.56274 0.781488 1.6512 0.850008 1.72109L4.65001 5.52109C4.85001 5.72109 5.15001 5.72109 5.35001 5.52109L9.15001 1.72109C9.21911 1.65059 9.2658 1.56122 9.28419 1.46423C9.30258 1.36724 9.29185 1.26698 9.25335 1.17608C9.21486 1.08518 9.15031 1.00771 9.06786 0.953437C8.9854 0.899161 8.88872 0.870507 8.79001 0.871087H1.21001H1.20001Z" fill="#21232C"/>
</svg>
