<svg width="16" height="16" viewBox="0 0 16 16" fill="none" xmlns="http://www.w3.org/2000/svg">
<path d="M13.5 10H11.28C11.18 10 10.98 10.09 10.84 10.34C10.42 11.04 9.56 12 8 12C6.44 12 5.58 11.05 5.16 10.34C5.01 10.09 4.82 10 4.72 10H2.5V13C2.5 13.28 2.72 13.5 3 13.5H13C13.28 13.5 13.5 13.28 13.5 13V10ZM13.5 8.5V3C13.5 2.72 13.28 2.5 13 2.5H3C2.72 2.5 2.5 2.72 2.5 3V8.5H4.72C5.54 8.5 6.14 9.05 6.46 9.58C6.72 10.03 7.17 10.5 8 10.5C8.83 10.5 9.28 10.03 9.54 9.58C9.86 9.05 10.46 8.5 11.28 8.5H13.5ZM1 3C1 1.9 1.9 1 3 1H13C14.1 1 15 1.9 15 3V13C15 14.1 14.1 15 13 15H3C1.9 15 1 14.1 1 13V3Z" fill="#0D68C5"/>
</svg>
