<svg width="25" height="24" viewBox="0 0 25 24" fill="none" xmlns="http://www.w3.org/2000/svg">
<path d="M7.02682 8.38135C6.67682 8.15135 6.21682 8.24135 5.98682 8.58135C5.75682 8.93135 5.84682 9.39135 6.18682 9.62135L11.9168 13.4413C12.3368 13.7213 12.8768 13.7213 13.2968 13.4413L19.0268 9.62135C19.3668 9.39135 19.4568 8.92135 19.2268 8.58135C18.9968 8.24135 18.5268 8.15135 18.1868 8.38135L12.8868 11.9113C12.7168 12.0313 12.4968 12.0313 12.3268 11.9113L7.02682 8.38135Z" fill="white"/>
<path d="M2.60742 7C2.60742 5.34 3.94742 4 5.60742 4H19.6074C21.2674 4 22.6074 5.34 22.6074 7V17C22.6074 18.66 21.2674 20 19.6074 20H5.60742C3.94742 20 2.60742 18.66 2.60742 17V7ZM5.60742 5.5C4.77742 5.5 4.10742 6.17 4.10742 7V17C4.10742 17.83 4.77742 18.5 5.60742 18.5H19.6074C20.4374 18.5 21.1074 17.83 21.1074 17V7C21.1074 6.17 20.4374 5.5 19.6074 5.5H5.60742Z" fill="white"/>
</svg>
