<svg width="25" height="25" viewBox="0 0 25 25" fill="none" xmlns="http://www.w3.org/2000/svg">
<path d="M12.9805 7.99219C11.6805 7.99219 10.7305 8.95219 10.7305 9.99219C10.7305 10.4122 10.3905 10.7522 9.98047 10.7522C9.57047 10.7522 9.23047 10.4122 9.23047 10.0022C9.23047 8.00219 10.9705 6.49219 12.9805 6.49219C14.9905 6.49219 16.7305 8.00219 16.7305 9.99219C16.7305 11.3922 15.7305 12.4722 14.6205 13.0322C14.0305 13.3322 13.7305 13.7522 13.7305 14.1122V15.2422C13.7305 15.6522 13.3905 15.9922 12.9805 15.9922C12.5705 15.9922 12.2305 15.6522 12.2305 15.2422V14.1122C12.2305 12.9122 13.1505 12.0922 13.9405 11.6922C14.7605 11.2922 15.2305 10.6222 15.2305 9.99219C15.2305 8.95219 14.2805 7.99219 12.9805 7.99219ZM12.9805 17.2422C13.3905 17.2422 13.7305 17.5822 13.7305 17.9922V18.4922C13.7305 18.9022 13.3905 19.2422 12.9805 19.2422C12.5705 19.2422 12.2305 18.9022 12.2305 18.4922V17.9922C12.2305 17.5822 12.5705 17.2422 12.9805 17.2422Z" fill="#65686F"/>
<path d="M12.9805 2.74219C7.46047 2.74219 2.98047 7.22219 2.98047 12.7422C2.98047 18.2622 7.46047 22.7422 12.9805 22.7422C18.5005 22.7422 22.9805 18.2622 22.9805 12.7422C22.9805 7.22219 18.5005 2.74219 12.9805 2.74219ZM4.44047 12.7422C4.44047 8.03219 8.27047 4.20219 12.9805 4.20219C17.6905 4.20219 21.5205 8.03219 21.5205 12.7422C21.5205 17.4522 17.6905 21.2822 12.9805 21.2822C8.27047 21.2822 4.44047 17.4522 4.44047 12.7422Z" fill="#65686F"/>
</svg>
