<svg width="21" height="20" viewBox="0 0 21 20" fill="none" xmlns="http://www.w3.org/2000/svg">
<path d="M10.5527 13.9922C11.6136 13.9922 12.631 13.5708 13.3812 12.8206C14.1313 12.0705 14.5527 11.0531 14.5527 9.99219C14.5527 8.93132 14.1313 7.91391 13.3812 7.16376C12.631 6.41361 11.6136 5.99219 10.5527 5.99219C9.49187 5.99219 8.47445 6.41361 7.72431 7.16376C6.97416 7.91391 6.55273 8.93132 6.55273 9.99219C6.55273 11.0531 6.97416 12.0705 7.72431 12.8206C8.47445 13.5708 9.49187 13.9922 10.5527 13.9922Z" stroke="#65686F" stroke-width="1.5" stroke-linecap="round" stroke-linejoin="round"/>
<path d="M1.55273 13.9922V5.99219C1.55273 4.66611 2.07952 3.39434 3.0172 2.45665C3.95488 1.51897 5.22665 0.992188 6.55273 0.992188H14.5527C15.8788 0.992188 17.1506 1.51897 18.0883 2.45665C19.026 3.39434 19.5527 4.66611 19.5527 5.99219V13.9922C19.5527 15.3183 19.026 16.59 18.0883 17.5277C17.1506 18.4654 15.8788 18.9922 14.5527 18.9922H6.55273C5.22665 18.9922 3.95488 18.4654 3.0172 17.5277C2.07952 16.59 1.55273 15.3183 1.55273 13.9922Z" stroke="#65686F" stroke-width="1.5"/>
<path d="M16.0527 4.50218L16.0627 4.49118" stroke="#65686F" stroke-width="1.5" stroke-linecap="round" stroke-linejoin="round"/>
</svg>
