<svg width="20" height="21" viewBox="0 0 20 21" fill="none" xmlns="http://www.w3.org/2000/svg">
<g clip-path="url(#clip0_316_4631)">
<path d="M0.426904 9.9575C0.426436 11.651 0.868936 13.3046 1.71034 14.7621L0.346436 19.7419L5.44269 18.4057C6.85224 19.1731 8.43155 19.5751 10.0364 19.5752H10.0407C15.3387 19.5752 19.6514 15.2641 19.6537 9.96507C19.6547 7.39734 18.6557 4.98281 16.8405 3.16625C15.0257 1.34984 12.612 0.348981 10.0403 0.347809C4.74159 0.347809 0.42917 4.65875 0.426982 9.9575" fill="url(#paint0_linear_316_4631)"/>
<path d="M0.0835938 9.95438C0.0830469 11.7088 0.541406 13.4216 1.41281 14.9312L0 20.0896L5.27898 18.7055C6.73352 19.4985 8.37117 19.9166 10.0376 19.9173H10.0419C15.53 19.9173 19.9977 15.451 20 9.96234C20.0009 7.30234 18.9659 4.80102 17.0859 2.91937C15.2057 1.03797 12.7057 0.00109375 10.0419 0C4.55281 0 0.0857813 4.46563 0.0835938 9.95438ZM3.22742 14.6713L3.03031 14.3584C2.20172 13.0409 1.76437 11.5184 1.765 9.955C1.76672 5.39289 5.47953 1.68125 10.045 1.68125C12.2559 1.68219 14.3337 2.54406 15.8966 4.10781C17.4593 5.67172 18.3192 7.75063 18.3187 9.96172C18.3166 14.5238 14.6037 18.2359 10.0419 18.2359H10.0386C8.5532 18.2352 7.09641 17.8363 5.82594 17.0824L5.52359 16.9031L2.39094 17.7245L3.22742 14.6713Z" fill="url(#paint1_linear_316_4631)"/>
<path d="M7.55303 5.7928C7.36662 5.3785 7.17045 5.37014 6.99318 5.36288C6.84803 5.35663 6.68209 5.35709 6.51631 5.35709C6.35037 5.35709 6.08076 5.41952 5.85287 5.66834C5.62475 5.91741 4.98193 6.51928 4.98193 7.74342C4.98193 8.96764 5.87357 10.1507 5.99787 10.3169C6.12232 10.4827 7.7192 13.0752 10.2483 14.0726C12.3501 14.9014 12.7779 14.7365 13.234 14.695C13.6903 14.6536 14.7062 14.0933 14.9135 13.5122C15.1209 12.9313 15.1209 12.4333 15.0587 12.3293C14.9965 12.2256 14.8306 12.1633 14.5818 12.039C14.3329 11.9145 13.1096 11.3126 12.8815 11.2295C12.6534 11.1465 12.4876 11.1051 12.3216 11.3543C12.1557 11.603 11.6792 12.1633 11.534 12.3293C11.3889 12.4956 11.2437 12.5163 10.9949 12.3919C10.7459 12.267 9.94459 12.0046 8.99389 11.157C8.2542 10.4975 7.75482 9.68303 7.60967 9.43389C7.46451 9.18514 7.59412 9.0503 7.71889 8.92631C7.83068 8.81483 7.96779 8.63577 8.09232 8.49053C8.21639 8.34522 8.25779 8.24155 8.34076 8.07561C8.42381 7.90952 8.38225 7.7642 8.32014 7.63975C8.25779 7.5153 7.77428 6.28475 7.55303 5.7928Z" fill="white"/>
</g>
<defs>
<linearGradient id="paint0_linear_316_4631" x1="965.71" y1="1939.76" x2="965.71" y2="0.347809" gradientUnits="userSpaceOnUse">
<stop stop-color="#1FAF38"/>
<stop offset="1" stop-color="#60D669"/>
</linearGradient>
<linearGradient id="paint1_linear_316_4631" x1="1000" y1="2008.96" x2="1000" y2="0" gradientUnits="userSpaceOnUse">
<stop stop-color="#F9F9F9"/>
<stop offset="1" stop-color="white"/>
</linearGradient>
<clipPath id="clip0_316_4631">
<rect width="20" height="20.1562" fill="white"/>
</clipPath>
</defs>
</svg>
