<svg width="21" height="6" viewBox="0 0 21 6" fill="none" xmlns="http://www.w3.org/2000/svg">
<path d="M2.10742 3C2.10742 2.45 2.55742 2 3.10742 2C3.65742 2 4.10742 2.45 4.10742 3C4.10742 3.55 3.65742 4 3.10742 4C2.55742 4 2.10742 3.55 2.10742 3ZM0.607422 3C0.607422 4.38 1.72742 5.5 3.10742 5.5C4.48742 5.5 5.60742 4.38 5.60742 3C5.60742 1.62 4.48742 0.5 3.10742 0.5C1.72742 0.5 0.607422 1.62 0.607422 3ZM9.60742 3C9.60742 2.45 10.0574 2 10.6074 2C11.1574 2 11.6074 2.45 11.6074 3C11.6074 3.55 11.1574 4 10.6074 4C10.0574 4 9.60742 3.55 9.60742 3ZM8.10742 3C8.10742 4.38 9.22742 5.5 10.6074 5.5C11.9874 5.5 13.1074 4.38 13.1074 3C13.1074 1.62 11.9874 0.5 10.6074 0.5C9.22742 0.5 8.10742 1.62 8.10742 3ZM20.6074 3C20.6074 3.85 20.1874 4.6 19.5374 5.05C19.1374 5.33 18.6374 5.5 18.1074 5.5C17.5774 5.5 17.0774 5.33 16.6774 5.05C16.0274 4.6 15.6074 3.85 15.6074 3C15.6074 1.62 16.7274 0.5 18.1074 0.5C19.4874 0.5 20.6074 1.62 20.6074 3ZM18.1074 4C18.6574 4 19.1074 3.55 19.1074 3C19.1074 2.45 18.6574 2 18.1074 2C17.5574 2 17.1074 2.45 17.1074 3C17.1074 3.55 17.5574 4 18.1074 4Z" fill="white"/>
</svg>
