<svg width="17" height="17" viewBox="0 0 17 17" fill="none" xmlns="http://www.w3.org/2000/svg">
<g clip-path="url(#clip0_109_11008)">
<path d="M5.01953 1.37109C5.42953 1.37109 5.76953 1.71109 5.76953 2.12109V2.87109H10.7695V2.12109C10.7695 1.71109 11.1095 1.37109 11.5195 1.37109C11.9295 1.37109 12.2695 1.71109 12.2695 2.12109V2.87109H12.5195C13.7595 2.87109 14.7695 3.87109 14.7695 5.12109V13.6211C14.7695 14.8611 13.7695 15.8711 12.5195 15.8711H4.01953C2.77953 15.8711 1.76953 14.8711 1.76953 13.6211V5.12109C1.76953 3.88109 2.76953 2.87109 4.01953 2.87109H4.26953V2.12109C4.26953 1.71109 4.60953 1.37109 5.01953 1.37109ZM4.01953 4.37109C3.60953 4.37109 3.26953 4.71109 3.26953 5.12109V6.37109H13.2695V5.12109C13.2695 4.71109 12.9295 4.37109 12.5195 4.37109H4.01953ZM3.26953 13.6211C3.26953 14.0311 3.60953 14.3711 4.01953 14.3711H12.5195C12.9295 14.3711 13.2695 14.0311 13.2695 13.6211V7.87109H3.26953V13.6211ZM9.76953 10.3711H11.7695C12.0495 10.3711 12.2695 10.5911 12.2695 10.8711V12.8711C12.2695 13.1511 12.0495 13.3711 11.7695 13.3711H9.76953C9.48953 13.3711 9.26953 13.1511 9.26953 12.8711V10.8711C9.26953 10.5911 9.48953 10.3711 9.76953 10.3711Z" fill="#21232C"/>
</g>
<defs>
<clipPath id="clip0_109_11008">
<rect width="16" height="16" fill="white" transform="translate(0.269531 0.871094)"/>
</clipPath>
</defs>
</svg>
