<svg width="24" height="24" viewBox="0 0 24 24" fill="none" xmlns="http://www.w3.org/2000/svg">
<g clip-path="url(#clip0_1538_2701)">
<path d="M23.4457 18.0848C23.0786 17.8268 19.0615 15.1557 18.5692 14.8549C18.3547 14.7237 18.0929 14.6596 17.8083 14.6596C17.4412 14.6596 17.0347 14.7664 16.6379 14.9753C16.2513 15.1789 15.0802 15.8453 14.5072 16.1727C14.0024 15.8183 12.8167 14.9101 10.9484 13.0399C9.09181 11.1841 8.17531 9.98857 7.81869 9.48118C8.14531 8.90855 8.81094 7.73743 9.01344 7.35193C9.39706 6.62518 9.44058 5.89955 9.12931 5.41018C8.83721 4.94893 6.17694 0.914676 5.90244 0.535176C5.64406 0.177051 5.18019 -0.016449 4.67696 -0.016449C4.27983 -0.016449 3.85871 0.103551 3.49346 0.357801C3.45821 0.382926 -0.0713146 2.94193 -0.0244395 4.3973C0.105709 8.48555 4.07844 13.2901 7.38816 16.6009C10.6979 19.9118 15.5028 23.8857 19.6072 24.0165H19.6409C21.0779 24.0165 23.6039 20.5317 23.6283 20.4972C24.2909 19.5503 24.0494 18.5078 23.4457 18.0848ZM22.4096 19.6235C21.4582 20.9412 20.1074 22.3175 19.5787 22.5144C16.7654 22.3824 12.8178 19.91 8.44868 15.5401C4.07994 11.1699 1.60794 7.22675 1.47744 4.42287C1.66719 3.89262 3.04341 2.53325 4.34916 1.589C4.44591 1.52225 4.56516 1.48362 4.67654 1.48362C4.70126 1.48362 4.72189 1.48587 4.73804 1.48887C5.15991 2.102 7.42454 5.53027 7.83554 6.17112C7.83704 6.23862 7.81419 6.40995 7.68554 6.65447C7.54866 6.9151 7.12229 7.67485 6.51591 8.7376L6.04416 9.56447L6.59129 10.3437C6.99929 10.9231 7.96979 12.1827 9.88716 14.1005C11.8128 16.0268 13.0679 16.9944 13.645 17.4001L14.4243 17.9472L15.2512 17.4747C16.0526 17.0168 17.0208 16.4682 17.3358 16.3028C17.5886 16.1697 17.7614 16.1592 17.8083 16.1592C17.8158 16.1592 17.8222 16.1592 17.8274 16.16C18.4016 16.5203 21.9041 18.8457 22.5224 19.2698C22.5326 19.3298 22.5232 19.4603 22.4096 19.6235ZM15.0899 8.82462C15.1867 8.9225 15.3228 8.98217 15.474 8.97804L15.7485 8.97165C15.7537 8.97165 15.7574 8.96942 15.7635 8.96907L21.1424 8.99267C21.4451 8.98554 21.6959 8.73504 21.7031 8.43164L21.7034 8.0469C21.6577 7.6899 21.3768 7.48064 21.0738 7.48739L17.5229 7.47802L23.6624 1.34677C23.9553 1.05389 23.9553 0.578746 23.6624 0.285871C23.3695 -0.00662867 22.8948 -0.00662867 22.6019 0.285871L16.4455 6.434L16.4662 2.8051C16.4729 2.50212 16.2326 2.23812 15.9296 2.24525L15.5448 2.2456C15.2411 2.2531 14.9902 2.4335 14.9838 2.7365L14.9684 8.15075C14.9684 8.15597 14.989 8.15972 14.989 8.16497L14.959 8.43947C14.956 8.59172 14.9916 8.7271 15.0899 8.82462Z" fill="#65686F"/>
</g>
<defs>
<clipPath id="clip0_1538_2701">
<rect width="24" height="24" fill="white"/>
</clipPath>
</defs>
</svg>
