<svg width="60" height="60" viewBox="0 0 60 60" fill="none" xmlns="http://www.w3.org/2000/svg">
<circle cx="30" cy="30" r="27" fill="#6150E1" fill-opacity="0.2"/>
<circle cx="30" cy="30" r="29.5" stroke="#6150E1" stroke-opacity="0.6"/>
<path d="M25.7992 32.4C25.6401 32.4 25.4875 32.3367 25.375 32.2242C25.2624 32.1117 25.1992 31.9591 25.1992 31.8C25.1992 31.6408 25.2624 31.4882 25.375 31.3757C25.4875 31.2632 25.6401 31.2 25.7992 31.2H34.1992C34.3583 31.2 34.511 31.2632 34.6235 31.3757C34.736 31.4882 34.7992 31.6408 34.7992 31.8C34.7992 31.9591 34.736 32.1117 34.6235 32.2242C34.511 32.3367 34.3583 32.4 34.1992 32.4H25.7992ZM25.7992 36C25.6401 36 25.4875 35.9367 25.375 35.8242C25.2624 35.7117 25.1992 35.5591 25.1992 35.4C25.1992 35.2408 25.2624 35.0882 25.375 34.9757C25.4875 34.8632 25.6401 34.8 25.7992 34.8H34.1992C34.3583 34.8 34.511 34.8632 34.6235 34.9757C34.736 35.0882 34.7992 35.2408 34.7992 35.4C34.7992 35.5591 34.736 35.7117 34.6235 35.8242C34.511 35.9367 34.3583 36 34.1992 36H25.7992Z" fill="#6150E1"/>
<path fill-rule="evenodd" clip-rule="evenodd" d="M31.4216 19.2H23.3996C22.9222 19.2 22.4644 19.3896 22.1268 19.7272C21.7893 20.0647 21.5996 20.5226 21.5996 21V39C21.5996 39.4773 21.7893 39.9352 22.1268 40.2727C22.4644 40.6103 22.9222 40.8 23.3996 40.8H36.5996C37.077 40.8 37.5348 40.6103 37.8724 40.2727C38.21 39.9352 38.3996 39.4773 38.3996 39V26.6424C38.3995 26.1917 38.2304 25.7575 37.9256 25.4256L32.7488 19.7832C32.5801 19.5992 32.375 19.4524 32.1465 19.352C31.918 19.2516 31.6712 19.1998 31.4216 19.2ZM22.7996 21C22.7996 20.8408 22.8628 20.6882 22.9753 20.5757C23.0879 20.4632 23.2405 20.4 23.3996 20.4H31.4216C31.5049 20.3999 31.5872 20.4171 31.6635 20.4506C31.7397 20.484 31.8081 20.533 31.8644 20.5944L37.0412 26.2368C37.1429 26.3473 37.1995 26.4921 37.1996 26.6424V39C37.1996 39.1591 37.1364 39.3117 37.0239 39.4242C36.9114 39.5367 36.7587 39.6 36.5996 39.6H23.3996C23.2405 39.6 23.0879 39.5367 22.9753 39.4242C22.8628 39.3117 22.7996 39.1591 22.7996 39V21Z" fill="#6150E1"/>
<path d="M31.2 26.4H37.8C37.9591 26.4 38.1117 26.4632 38.2243 26.5757C38.3368 26.6882 38.4 26.8408 38.4 27C38.4 27.1591 38.3368 27.3117 38.2243 27.4242C38.1117 27.5367 37.9591 27.6 37.8 27.6H30.6C30.4409 27.6 30.2883 27.5367 30.1757 27.4242C30.0632 27.3117 30 27.1591 30 27V19.8C30 19.6408 30.0632 19.4882 30.1757 19.3757C30.2883 19.2632 30.4409 19.2 30.6 19.2C30.7591 19.2 30.9117 19.2632 31.0243 19.3757C31.1368 19.4882 31.2 19.6408 31.2 19.8V26.4Z" fill="#6150E1"/>
</svg>
