<svg width="24" height="24" viewBox="0 0 24 24" fill="none" xmlns="http://www.w3.org/2000/svg">
<path d="M17.0011 7.84597H7.00113V4.61597H17.0011V7.84597ZM17.6161 12.116C17.8995 12.116 18.1371 12.02 18.3291 11.828C18.5211 11.636 18.6168 11.3983 18.6161 11.115C18.6161 10.8316 18.5205 10.5943 18.3291 10.403C18.1378 10.2116 17.9001 10.1156 17.6161 10.115C17.3328 10.115 17.0955 10.211 16.9041 10.403C16.7128 10.595 16.6168 10.8323 16.6161 11.115C16.6161 11.3983 16.7121 11.636 16.9041 11.828C17.0961 12.02 17.3335 12.1156 17.6161 12.115M16.0011 19V14.462H8.00113V19H16.0011ZM17.0011 20H7.00113V16H3.57812V10.615C3.57812 10.0483 3.77046 9.5733 4.15512 9.18997C4.53979 8.80663 5.01413 8.61497 5.57813 8.61497H18.4241C18.9908 8.61497 19.4658 8.80663 19.8491 9.18997C20.2325 9.5733 20.4241 10.0483 20.4241 10.615V16H17.0011V20Z" fill="white"/>
</svg>
