<svg width="18" height="20" viewBox="0 0 18 20" fill="none" xmlns="http://www.w3.org/2000/svg">
<path d="M4.60742 1C4.60742 0.45 5.05742 0 5.60742 0H11.6074C12.1574 0 12.6074 0.45 12.6074 1H15.1074C16.2074 1 17.1074 1.9 17.1074 3V18C17.1074 19.1 16.2074 20 15.1074 20H2.10742C1.00742 20 0.107422 19.1 0.107422 18V3C0.107422 1.9 1.00742 1 2.10742 1H4.60742ZM4.60742 3V2.5H2.10742C1.82742 2.5 1.60742 2.72 1.60742 3V18C1.60742 18.28 1.82742 18.5 2.10742 18.5H15.1074C15.3874 18.5 15.6074 18.28 15.6074 18V3C15.6074 2.72 15.3874 2.5 15.1074 2.5H12.6074V3C12.6074 3.55 12.1574 4 11.6074 4H5.60742C5.05742 4 4.60742 3.55 4.60742 3ZM6.00742 10.72C5.72742 10.42 5.24742 10.42 4.95742 10.72C4.65742 11.02 4.65742 11.49 4.95742 11.78L7.07742 13.9C7.21742 14.04 7.40742 14.12 7.60742 14.12C7.80742 14.12 7.99742 14.04 8.13742 13.9L13.0874 8.95C13.3874 8.65 13.3874 8.18 13.0874 7.89C12.7874 7.59 12.3174 7.59 12.0274 7.89L7.60742 12.31L6.00742 10.72Z" fill="white"/>
</svg>
