<svg width="19" height="19" viewBox="0 0 19 19" fill="none" xmlns="http://www.w3.org/2000/svg">
<g clip-path="url(#clip0_1243_5594)">
<path d="M15.2877 9.37252C14.8691 9.37195 14.4589 9.48956 14.1042 9.71182C14.0408 9.7514 13.9679 9.77298 13.8932 9.77425C13.8185 9.77552 13.7449 9.75643 13.6803 9.71902C13.6148 9.68078 13.5605 9.62596 13.5229 9.56008C13.4853 9.4942 13.4657 9.41958 13.4661 9.34372V6.54562C13.4656 6.34024 13.384 6.14337 13.239 5.99789C13.094 5.85241 12.8974 5.77011 12.6921 5.76892H10.2459C10.1723 5.76859 10.1001 5.74886 10.0366 5.71172C9.97306 5.67459 9.92046 5.62137 9.88407 5.55742C9.84685 5.49271 9.82674 5.41958 9.82564 5.34494C9.82453 5.2703 9.84247 5.19661 9.87777 5.13082C10.0605 4.79332 10.164 4.40452 10.164 3.99142C10.1649 2.69362 9.13887 1.64062 7.87077 1.64062C6.60447 1.64062 5.57846 2.69362 5.57846 3.99142C5.57846 4.40362 5.68196 4.79242 5.86466 5.12992C5.90012 5.19582 5.91815 5.26968 5.91705 5.34449C5.91594 5.41931 5.89574 5.49261 5.85836 5.55742C5.82186 5.6212 5.7692 5.67424 5.70569 5.71121C5.64218 5.74818 5.57005 5.76778 5.49656 5.76802H2.15037C1.94532 5.76945 1.74919 5.85209 1.60496 5.99784C1.46073 6.1436 1.38015 6.34057 1.38087 6.54562V9.27532C1.38064 9.34925 1.39939 9.42199 1.43531 9.4866C1.47124 9.55121 1.52315 9.60551 1.58607 9.64432C1.71207 9.72262 1.87047 9.72532 2.00007 9.65332C2.32407 9.47422 2.69487 9.37252 3.08907 9.37252C4.35536 9.37252 5.38226 10.4246 5.38226 11.7215C5.38226 13.0193 4.35626 14.0714 3.08907 14.0705C2.69487 14.0705 2.32407 13.9697 2.00007 13.7897C1.93643 13.7545 1.86458 13.7367 1.79185 13.7383C1.71912 13.7399 1.64811 13.7607 1.58607 13.7987C1.52302 13.8376 1.47103 13.8921 1.43509 13.9568C1.39916 14.0216 1.38048 14.0945 1.38087 14.1686V17.0603C1.38087 17.4914 1.73007 17.8406 2.15037 17.8406H12.6921C13.1124 17.8406 13.4661 17.4914 13.4661 17.0603V14.0993C13.4658 14.0236 13.4855 13.9492 13.5231 13.8835C13.5607 13.8178 13.6149 13.7631 13.6803 13.7249C13.7449 13.6875 13.8185 13.6684 13.8932 13.6697C13.9679 13.671 14.0408 13.6925 14.1042 13.7321C14.4489 13.9481 14.853 14.0714 15.2877 14.0714C16.5549 14.0714 17.5809 13.0202 17.5809 11.7224C17.5809 10.4246 16.5549 9.37252 15.2877 9.37342V9.37252Z" stroke="#65686F" stroke-width="1.35" stroke-linejoin="round"/>
</g>
<defs>
<clipPath id="clip0_1243_5594">
<rect width="18" height="18" fill="white" transform="translate(0.480469 0.742188)"/>
</clipPath>
</defs>
</svg>
