<svg width="36" height="36" viewBox="0 0 36 36" fill="none" xmlns="http://www.w3.org/2000/svg">
<path d="M4.50781 10.5L17.1753 2.05499C17.4218 1.89053 17.7115 1.80276 18.0078 1.80276C18.3041 1.80276 18.5938 1.89053 18.8403 2.05499L31.5078 10.5V31.5C31.5078 31.8978 31.3498 32.2793 31.0685 32.5606C30.7872 32.842 30.4056 33 30.0078 33H6.00781C5.60999 33 5.22846 32.842 4.94715 32.5606C4.66585 32.2793 4.50781 31.8978 4.50781 31.5V10.5ZM7.50781 12.105V30H28.5078V12.105L18.0078 5.10449L7.50781 12.105ZM12.0078 24H24.0078V27H12.0078V24ZM12.0078 19.5H24.0078V22.5H12.0078V19.5ZM18.0078 16.5C17.2122 16.5 16.4491 16.1839 15.8865 15.6213C15.3239 15.0587 15.0078 14.2956 15.0078 13.5C15.0078 12.7043 15.3239 11.9413 15.8865 11.3787C16.4491 10.8161 17.2122 10.5 18.0078 10.5C18.8035 10.5 19.5665 10.8161 20.1291 11.3787C20.6917 11.9413 21.0078 12.7043 21.0078 13.5C21.0078 14.2956 20.6917 15.0587 20.1291 15.6213C19.5665 16.1839 18.8035 16.5 18.0078 16.5Z" fill="white"/>
</svg>
