<svg width="24" height="24" viewBox="0 0 24 24" fill="none" xmlns="http://www.w3.org/2000/svg">
<g clip-path="url(#clip0_1243_3763)">
<path d="M10.3152 7.05387C10.3558 7.05354 10.3964 7.05322 10.4382 7.05288C10.5713 7.05206 10.7044 7.0526 10.8376 7.05323C10.9307 7.05311 11.0239 7.05292 11.117 7.05269C11.3118 7.05241 11.5066 7.05281 11.7014 7.05369C11.9505 7.05476 12.1995 7.05414 12.4485 7.05302C12.6407 7.05234 12.8329 7.05256 13.0252 7.05304C13.117 7.05317 13.2088 7.05302 13.3006 7.05258C13.4291 7.0521 13.5576 7.05283 13.6861 7.05387C13.7424 7.0533 13.7424 7.0533 13.7998 7.05272C14.0531 7.0565 14.2869 7.09817 14.485 7.26563C14.6892 7.54135 14.699 7.76666 14.6951 8.10302C14.6952 8.15384 14.6954 8.20465 14.6956 8.257C14.6959 8.42701 14.6948 8.59699 14.6938 8.767C14.6938 8.88896 14.6938 9.01093 14.6939 9.1329C14.694 9.39535 14.6934 9.6578 14.6924 9.92025C14.6908 10.2997 14.6903 10.6792 14.6901 11.0586C14.6897 11.6743 14.6885 12.29 14.6867 12.9057C14.685 13.5037 14.6836 14.1016 14.6828 14.6996C14.6828 14.7365 14.6827 14.7734 14.6827 14.8114C14.6824 14.9964 14.6822 15.1814 14.682 15.3664C14.68 16.9005 14.6767 18.4346 14.6725 19.9688C15.2913 19.9688 15.91 19.9688 16.5475 19.9688C16.5466 19.6808 16.5456 19.3928 16.5446 19.0962C16.5415 18.1459 16.5394 17.1956 16.5378 16.2454C16.5369 15.6691 16.5355 15.0928 16.5334 14.5166C16.5315 14.0143 16.5303 13.512 16.5299 13.0098C16.5296 12.7438 16.5291 12.4778 16.5277 12.2119C16.5264 11.9615 16.526 11.7112 16.5263 11.4608C16.5263 11.369 16.5259 11.2771 16.5252 11.1853C16.5243 11.0597 16.5245 10.9343 16.525 10.8087C16.5244 10.7725 16.5239 10.7362 16.5233 10.6989C16.5262 10.4408 16.5886 10.2915 16.735 10.0781C16.9638 9.87237 17.1553 9.86358 17.4482 9.86637C17.5121 9.86588 17.5121 9.86588 17.5772 9.86538C17.7174 9.86455 17.8575 9.8651 17.9977 9.86573C18.0954 9.86561 18.1932 9.86542 18.2909 9.86519C18.4955 9.86491 18.7 9.86531 18.9046 9.86619C19.1666 9.86726 19.4285 9.86664 19.6905 9.86552C19.8922 9.86484 20.0939 9.86506 20.2956 9.86554C20.3922 9.86567 20.4888 9.86552 20.5854 9.86508C20.7205 9.8646 20.8555 9.86533 20.9906 9.86637C21.0303 9.86599 21.0701 9.86561 21.111 9.86522C21.3614 9.8688 21.5086 9.90718 21.7038 10.0781C21.8859 10.301 21.918 10.4784 21.9138 10.758C21.914 10.7975 21.9142 10.837 21.9143 10.8777C21.9146 11.0096 21.9136 11.1415 21.9126 11.2734C21.9125 11.3681 21.9125 11.4629 21.9127 11.5576C21.9127 11.8145 21.9116 12.0714 21.9103 12.3283C21.9091 12.5969 21.909 12.8655 21.9088 13.134C21.9082 13.6425 21.9067 14.151 21.9048 14.6595C21.9027 15.2384 21.9017 15.8174 21.9007 16.3963C21.8988 17.5871 21.8955 18.7779 21.8913 19.9688C21.9395 19.9678 21.9877 19.9668 22.0374 19.9658C22.2172 19.9624 22.397 19.9602 22.5768 19.9585C22.6544 19.9575 22.7321 19.9562 22.8097 19.9546C22.9217 19.9523 23.0336 19.9513 23.1456 19.9504C23.1972 19.949 23.1972 19.949 23.2499 19.9475C23.5353 19.9474 23.6881 20.0484 23.8981 20.2295C24.0381 20.399 24.016 20.6172 24.0138 20.8251C23.9953 21.0054 23.9353 21.1024 23.8132 21.2344C23.5549 21.4216 23.3247 21.4288 23.0135 21.428C22.9749 21.4281 22.9363 21.4282 22.8966 21.4283C22.7665 21.4286 22.6365 21.4285 22.5064 21.4285C22.4125 21.4286 22.3187 21.4287 22.2248 21.4289C21.9662 21.4293 21.7076 21.4294 21.449 21.4294C21.1704 21.4295 20.8918 21.4298 20.6131 21.4301C19.9718 21.4308 19.3304 21.4311 18.689 21.4313C18.3721 21.4314 18.0553 21.4316 17.7384 21.4318C16.6537 21.4324 15.5691 21.4329 14.4844 21.433C14.4163 21.433 14.3482 21.433 14.2801 21.4331C14.2119 21.4331 14.1436 21.4331 14.0754 21.4331C13.9384 21.4331 13.8015 21.4331 13.6645 21.4331C13.6306 21.4332 13.5966 21.4332 13.5617 21.4332C12.4606 21.4333 11.3595 21.4341 10.2585 21.4352C9.09452 21.4363 7.93056 21.437 6.7666 21.437C6.63885 21.437 6.51109 21.437 6.38334 21.4371C6.35188 21.4371 6.32042 21.4371 6.28801 21.4371C5.78163 21.4371 5.27524 21.4376 4.76886 21.4383C4.25995 21.439 3.75104 21.4391 3.24214 21.4388C2.9664 21.4386 2.69066 21.4386 2.41492 21.4393C2.16256 21.4399 1.9102 21.4398 1.65783 21.4393C1.56648 21.4392 1.47513 21.4393 1.38377 21.4397C1.25965 21.4402 1.13556 21.4399 1.01144 21.4393C0.958173 21.4399 0.958173 21.4399 0.903832 21.4404C0.652888 21.4379 0.464354 21.385 0.235036 21.2813C0.00899663 21.0436 -0.0131554 20.8827 -0.00940951 20.5639C0.00853847 20.3387 0.096441 20.2425 0.261403 20.0977C0.456636 19.9575 0.603757 19.9626 0.837453 19.9642C0.873736 19.9642 0.910019 19.9643 0.947401 19.9644C1.06346 19.9646 1.17952 19.9652 1.29558 19.9658C1.3742 19.9661 1.45281 19.9663 1.53142 19.9665C1.7243 19.967 1.91717 19.9678 2.11004 19.9688C2.10986 19.9156 2.10969 19.8625 2.10951 19.8078C2.10535 18.5156 2.10227 17.2234 2.10032 15.9312C2.09935 15.3064 2.09804 14.6815 2.09589 14.0566C2.09402 13.512 2.09281 12.9674 2.09239 12.4229C2.09215 12.1344 2.09157 11.846 2.09021 11.5576C2.08894 11.2862 2.08855 11.0149 2.08883 10.7434C2.08878 10.6438 2.0884 10.5441 2.08769 10.4445C2.08675 10.3085 2.08698 10.1725 2.08749 10.0365C2.08694 9.997 2.0864 9.95751 2.08583 9.91683C2.08838 9.66707 2.13279 9.52679 2.29754 9.32813C2.52971 9.12474 2.71634 9.11356 3.01073 9.11637C3.0533 9.11604 3.09586 9.11572 3.13972 9.11538C3.27991 9.11455 3.42005 9.1151 3.56023 9.11573C3.65795 9.11561 3.75566 9.11542 3.85337 9.11519C4.05796 9.11491 4.26253 9.11531 4.46711 9.11619C4.72908 9.11726 4.99102 9.11664 5.253 9.11552C5.45471 9.11484 5.65641 9.11506 5.85813 9.11554C5.95471 9.11567 6.05129 9.11552 6.14788 9.11508C6.28297 9.1146 6.418 9.11533 6.55309 9.11637C6.59284 9.11599 6.63259 9.11561 6.67354 9.11522C6.92297 9.11878 7.07581 9.15236 7.26629 9.32813C7.44327 9.5914 7.48071 9.82643 7.47633 10.138C7.47649 10.1802 7.47665 10.2224 7.47682 10.266C7.47713 10.4067 7.4761 10.5473 7.47507 10.6881C7.47502 10.7893 7.47505 10.8904 7.47516 10.9916C7.47521 11.2658 7.47411 11.5399 7.4728 11.8141C7.47162 12.1008 7.47152 12.3875 7.47129 12.6742C7.47071 13.2169 7.46917 13.7596 7.46729 14.3023C7.46519 14.9202 7.46416 15.5381 7.46322 16.1561C7.46126 17.427 7.45782 18.6979 7.45379 19.9688C8.07254 19.9688 8.69129 19.9688 9.32879 19.9688C9.32837 19.8145 9.32795 19.6601 9.32752 19.5012C9.32379 18.0861 9.32099 16.6711 9.31921 15.256C9.31898 15.0705 9.31873 14.8851 9.31849 14.6996C9.31844 14.6627 9.31839 14.6258 9.31834 14.5877C9.31752 13.9899 9.31604 13.3921 9.31432 12.7942C9.31257 12.1808 9.31153 11.5674 9.31114 10.9539C9.31089 10.5754 9.31007 10.1969 9.30855 9.81836C9.30744 9.5281 9.30733 9.23785 9.30758 8.94759C9.30753 8.82852 9.30715 8.70946 9.30644 8.59039C9.3055 8.42792 9.30573 8.26549 9.30624 8.10302C9.30569 8.05583 9.30515 8.00863 9.30458 7.96001C9.30704 7.67245 9.34365 7.49878 9.51629 7.26563C9.74815 7.06968 10.0234 7.05092 10.3152 7.05387ZM10.7819 8.53126C10.7819 12.3056 10.7819 16.08 10.7819 19.9688C11.5863 19.9688 12.3907 19.9688 13.2194 19.9688C13.2194 16.1944 13.2194 12.42 13.2194 8.53126C12.415 8.53126 11.6107 8.53126 10.7819 8.53126ZM3.56316 10.5938C3.56316 13.6875 3.56316 16.7813 3.56316 19.9688C4.36754 19.9688 5.17191 19.9688 6.00066 19.9688C6.00066 16.875 6.00066 13.7813 6.00066 10.5938C5.19629 10.5938 4.39191 10.5938 3.56316 10.5938ZM18.0007 11.3438C18.0007 14.19 18.0007 17.0363 18.0007 19.9688C18.805 19.9688 19.6094 19.9688 20.4382 19.9688C20.4382 17.1225 20.4382 14.2763 20.4382 11.3438C19.6338 11.3438 18.8294 11.3438 18.0007 11.3438Z" fill="white"/>
<path d="M12.4599 2.75702C12.562 2.81481 12.6638 2.87339 12.7651 2.93261C12.8207 2.96442 12.8764 2.99616 12.9321 3.02784C13.0482 3.09404 13.1641 3.16066 13.2798 3.22764C13.4468 3.32432 13.6143 3.4199 13.7821 3.51526C14.0829 3.68638 14.3831 3.85838 14.6833 4.03061C14.9325 4.17357 15.1818 4.31632 15.4311 4.45898C15.4584 4.47457 15.4856 4.49015 15.5136 4.50621C15.8999 4.72718 16.2876 4.94548 16.6763 5.16211C17.0665 5.37961 17.4537 5.60158 17.8393 5.82715C17.8861 5.85418 17.9328 5.88122 17.9809 5.90907C18.1891 6.02975 18.3949 6.15185 18.5961 6.28381C18.6462 6.31541 18.6462 6.31541 18.6974 6.34766C18.7575 6.38574 18.8169 6.42525 18.8749 6.46652C18.965 6.52751 18.965 6.52751 19.1255 6.5625C19.2977 6.51045 19.4421 6.42288 19.5942 6.32812C19.6324 6.30513 19.6705 6.28215 19.7098 6.25846C19.8237 6.18851 19.9361 6.11663 20.0483 6.04394C20.3 5.88204 20.5516 5.724 20.813 5.57812C20.6765 5.50421 20.5471 5.46097 20.397 5.42285C20.1328 5.34532 19.9587 5.2455 19.811 5.0039C19.7526 4.7468 19.7393 4.53635 19.8608 4.29785C20.0633 4.06257 20.1964 3.96694 20.5025 3.93822C20.7323 3.93687 20.9478 3.99535 21.1695 4.05102C21.2202 4.06324 21.271 4.07546 21.3233 4.08805C21.43 4.11389 21.5366 4.14006 21.6432 4.16656C21.8059 4.20698 21.9689 4.24627 22.132 4.2854C22.236 4.31072 22.3399 4.33611 22.4439 4.36157C22.4924 4.37329 22.5409 4.38502 22.5908 4.3971C23.2471 4.56141 23.2471 4.56141 23.438 4.875C23.5659 5.21816 23.5125 5.51056 23.4347 5.85974C23.4235 5.91247 23.4124 5.96519 23.4009 6.01952C23.3773 6.13047 23.3533 6.24132 23.3288 6.35209C23.2916 6.52107 23.2559 6.69032 23.2204 6.85968C23.1972 6.96779 23.1739 7.07588 23.1505 7.18396C23.1399 7.23426 23.1293 7.28456 23.1184 7.33638C22.9846 7.93418 22.9846 7.93418 22.7398 8.13556C22.4949 8.24778 22.296 8.30426 22.0282 8.21905C21.8203 8.13029 21.69 8.02942 21.5921 7.82354C21.48 7.48026 21.6102 7.13037 21.7036 6.79687C21.1704 7.11451 20.6396 7.43553 20.1131 7.76407C19.3366 8.24761 19.3366 8.24761 19.038 8.1847C18.6974 8.07729 18.4007 7.89987 18.0942 7.71972C18.0066 7.66879 17.9189 7.618 17.8311 7.56722C17.7716 7.53272 17.712 7.49817 17.6525 7.46358C17.368 7.29846 17.0809 7.13825 16.7934 6.97851C16.3646 6.73957 15.9399 6.49432 15.5166 6.24586C15.1388 6.02469 14.7576 5.81011 14.3752 5.59705C13.888 5.32536 13.4039 5.04859 12.9198 4.77136C12.8694 4.74273 12.819 4.71411 12.7671 4.68461C12.6552 4.61994 12.5448 4.55417 12.4349 4.4864C12.4057 4.4688 12.3765 4.4512 12.3465 4.43306C12.2649 4.38377 12.1838 4.33372 12.1027 4.28364C11.9247 4.20619 11.8564 4.20987 11.6723 4.26562C11.5528 4.31517 11.438 4.36651 11.3219 4.42309C11.2884 4.43905 11.2549 4.455 11.2205 4.47144C11.1112 4.52361 11.0021 4.57626 10.893 4.6289C10.7778 4.68401 10.6626 4.739 10.5473 4.79398C10.4698 4.83095 10.3924 4.86796 10.315 4.90501C9.98737 5.06173 9.65833 5.21504 9.32859 5.36718C8.82936 5.5981 8.33167 5.83216 7.83445 6.06738C7.295 6.32256 6.75517 6.57686 6.21434 6.8291C6.1589 6.85496 6.10347 6.88081 6.04636 6.90746C5.94172 6.95621 5.83702 7.00483 5.73224 7.05329C5.62619 7.10278 5.52054 7.15315 5.41524 7.20421C5.36226 7.22961 5.30927 7.25502 5.25468 7.28119C5.20767 7.30408 5.16065 7.32697 5.11221 7.35055C4.82653 7.46183 4.61222 7.46883 4.33075 7.36349C4.12359 7.26877 3.93699 7.14522 3.74754 7.01953C3.65596 6.96003 3.56434 6.90059 3.4727 6.84118C3.40222 6.79525 3.40222 6.79525 3.33031 6.74839C3.10088 6.59987 2.86912 6.45513 2.63719 6.31054C2.5913 6.28186 2.5454 6.25319 2.49812 6.22364C2.24354 6.06479 1.98832 5.90703 1.73246 5.75024C1.70494 5.73336 1.67741 5.71648 1.64905 5.69908C1.51587 5.61743 1.38261 5.53592 1.2492 5.45464C0.482361 4.98532 0.482361 4.98532 0.375469 4.73437C0.336616 4.47431 0.341528 4.24352 0.45457 4.00488C0.62285 3.8275 0.788904 3.72668 1.03465 3.70605C1.4705 3.71829 1.81806 3.99785 2.1705 4.2293C2.29539 4.31122 2.42119 4.39148 2.54747 4.47125C2.71804 4.57906 2.88824 4.68741 3.05815 4.79626C3.35118 4.98363 3.6459 5.16828 3.9409 5.35254C4.01243 5.39725 4.01243 5.39725 4.08541 5.44286C4.26932 5.55766 4.26932 5.55766 4.45359 5.67187C4.49223 5.69902 4.53087 5.72617 4.57068 5.75414C4.68222 5.82121 4.68222 5.82121 4.79562 5.80897C4.97357 5.7481 5.14019 5.66974 5.30925 5.58764C5.34695 5.5696 5.38466 5.55156 5.42351 5.53298C5.50445 5.49422 5.58534 5.45534 5.66618 5.41636C5.87972 5.31339 6.09366 5.21127 6.30754 5.10901C6.35005 5.08864 6.39257 5.06828 6.43638 5.0473C6.77817 4.88372 7.12125 4.72319 7.46531 4.56445C7.96069 4.33557 8.45445 4.10346 8.94773 3.87011C9.96983 3.38685 9.96983 3.38685 10.4811 3.1475C10.5674 3.10705 10.6537 3.06649 10.7399 3.02592C10.8941 2.95386 11.0488 2.88316 11.2036 2.8125C11.2529 2.78878 11.3022 2.76506 11.353 2.74063C11.7896 2.54026 12.0334 2.53622 12.4599 2.75702Z" fill="white"/>
</g>
<defs>
<clipPath id="clip0_1243_3763">
<rect width="24" height="24" fill="white"/>
</clipPath>
</defs>
</svg>
