<svg width="17" height="17" viewBox="0 0 17 17" fill="none" xmlns="http://www.w3.org/2000/svg">
<g clip-path="url(#clip0_109_11026)">
<path d="M12.4816 3.61919C11.9716 3.61919 11.5616 4.02919 11.5616 4.53919C11.5616 4.70919 11.6116 4.85919 11.6816 4.99919C11.8416 5.26919 12.1416 5.44919 12.4816 5.44919C12.9816 5.44919 13.3916 5.04919 13.3916 4.53919C13.3916 4.02919 12.9916 3.61919 12.4816 3.61919ZM10.0616 4.53919C10.0604 4.06126 10.201 3.59372 10.4656 3.19571C10.7301 2.7977 11.1068 2.4871 11.5479 2.30321C11.9891 2.11931 12.4748 2.07037 12.9438 2.16259C13.4127 2.25481 13.8438 2.48404 14.1824 2.82129C14.5211 3.15853 14.7521 3.58863 14.8462 4.05719C14.9404 4.52575 14.8935 5.0117 14.7114 5.45359C14.5293 5.89547 14.2203 6.27343 13.8234 6.53965C13.4265 6.80587 12.9595 6.94839 12.4816 6.94919C11.8616 6.94919 11.3016 6.71919 10.8716 6.34919L6.8416 8.67919C6.8716 8.84919 6.8916 9.01919 6.8916 9.18919C6.8916 9.30919 6.8916 9.42919 6.8716 9.54919L10.7616 11.4992C10.9844 11.2686 11.2518 11.0859 11.5475 10.9621C11.8432 10.8383 12.161 10.7761 12.4816 10.7792C13.8116 10.7792 14.8916 11.8592 14.8916 13.1892C14.9009 13.5122 14.8453 13.8337 14.7281 14.1349C14.6109 14.436 14.4345 14.7106 14.2094 14.9423C13.9842 15.1741 13.7148 15.3583 13.4172 15.4841C13.1196 15.6099 12.7997 15.6747 12.4766 15.6747C12.1535 15.6747 11.8336 15.6099 11.536 15.4841C11.2384 15.3583 10.969 15.1741 10.7438 14.9423C10.5187 14.7106 10.3423 14.436 10.2251 14.1349C10.1079 13.8337 10.0523 13.5122 10.0616 13.1892C10.0616 13.0692 10.0616 12.9492 10.0916 12.8392L6.1916 10.8892C5.7616 11.3292 5.1516 11.6092 4.4816 11.6092C4.15861 11.6185 3.83704 11.5629 3.53591 11.4457C3.23478 11.3285 2.96022 11.1521 2.72848 10.927C2.49673 10.7018 2.31251 10.4324 2.18671 10.1348C2.06091 9.83715 1.99609 9.51731 1.99609 9.19419C1.99609 8.87106 2.06091 8.55122 2.18671 8.25359C2.31251 7.95596 2.49673 7.68659 2.72848 7.46142C2.96022 7.23624 3.23478 7.05985 3.53591 6.94266C3.83704 6.82548 4.15861 6.76989 4.4816 6.77919C5.0916 6.77919 5.6616 7.00919 6.0816 7.37919L10.1116 5.05919C10.0816 4.88919 10.0616 4.71919 10.0616 4.54919V4.53919ZM4.4816 8.28919C3.9716 8.28919 3.5616 8.68919 3.5616 9.19919C3.5616 9.70919 3.9716 10.1192 4.4816 10.1192C4.8316 10.1192 5.1516 9.91919 5.3016 9.61919C5.3616 9.48919 5.4016 9.34919 5.4016 9.19919C5.40003 9.03701 5.35515 8.87819 5.2716 8.73919C5.18871 8.60125 5.07138 8.48725 4.93113 8.40835C4.79088 8.32946 4.63252 8.28839 4.4716 8.28919H4.4816ZM12.4816 12.2892C12.1216 12.2892 11.8116 12.4892 11.6616 12.7892C11.5913 12.9291 11.558 13.0847 11.5648 13.2411C11.5716 13.3976 11.6184 13.5497 11.7005 13.683C11.7827 13.8163 11.8976 13.9263 12.0343 14.0027C12.171 14.079 12.325 14.1191 12.4816 14.1192C12.9816 14.1192 13.3916 13.7092 13.3916 13.1992C13.3916 12.6992 12.9916 12.2892 12.4816 12.2892Z" fill="#21232C"/>
</g>
<defs>
<clipPath id="clip0_109_11026">
<rect width="16" height="16" fill="white" transform="translate(0.810547 0.871094)"/>
</clipPath>
</defs>
</svg>
