<svg width="19" height="8" viewBox="0 0 19 8" fill="none" xmlns="http://www.w3.org/2000/svg">
<path d="M1.5752 0.25H17.3252C17.9402 0.25 18.4502 0.59 18.4502 1C18.4502 1.41 17.9402 1.75 17.3252 1.75H1.5752C0.960195 1.75 0.450195 1.41 0.450195 1C0.450195 0.59 0.960195 0.25 1.5752 0.25ZM4.5752 3.25H14.3252C14.9402 3.25 15.4502 3.59 15.4502 4C15.4502 4.41 14.9402 4.75 14.3252 4.75H4.5752C3.9602 4.75 3.4502 4.41 3.4502 4C3.4502 3.59 3.9602 3.25 4.5752 3.25ZM11.3252 6.25H7.5752C6.9602 6.25 6.4502 6.59 6.4502 7C6.4502 7.41 6.9602 7.75 7.5752 7.75H11.3252C11.9402 7.75 12.4502 7.41 12.4502 7C12.4502 6.59 11.9402 6.25 11.3252 6.25Z" fill="#21232C"/>
</svg>
