<svg width="25" height="24" viewBox="0 0 25 24" fill="none" xmlns="http://www.w3.org/2000/svg">
<g clip-path="url(#clip0_1243_3754)">
<path d="M12.6074 16C14.8074 16 16.6074 14.2 16.6074 12C16.6074 9.8 14.8074 8 12.6074 8C10.4074 8 8.60742 9.8 8.60742 12C8.60742 14.2 10.4074 16 12.6074 16Z" fill="white"/>
<path d="M11.8574 2.53C7.20742 2.89 3.49742 6.6 3.13742 11.25H1.60742C1.19742 11.25 0.857422 11.59 0.857422 12C0.857422 12.41 1.19742 12.75 1.60742 12.75H3.13742C3.49742 17.4 7.20742 21.11 11.8574 21.47V23C11.8574 23.41 12.1974 23.75 12.6074 23.75C13.0174 23.75 13.3574 23.41 13.3574 23V21.47C18.0074 21.11 21.7174 17.4 22.0774 12.75H23.6074C24.0174 12.75 24.3574 12.41 24.3574 12C24.3574 11.59 24.0174 11.25 23.6074 11.25H22.0774C21.7174 6.6 18.0074 2.89 13.3574 2.53V1C13.3574 0.59 13.0174 0.25 12.6074 0.25C12.1974 0.25 11.8574 0.59 11.8574 1V2.53ZM20.6074 12C20.6074 16.42 17.0274 20 12.6074 20C8.18742 20 4.60742 16.42 4.60742 12C4.60742 7.58 8.18742 4 12.6074 4C17.0274 4 20.6074 7.58 20.6074 12Z" fill="white"/>
</g>
<defs>
<clipPath id="clip0_1243_3754">
<rect width="24" height="24" fill="white" transform="translate(0.607422)"/>
</clipPath>
</defs>
</svg>
