<svg width="22" height="22" viewBox="0 0 22 22" fill="none" xmlns="http://www.w3.org/2000/svg">
<path d="M21.8317 6.88703C21.6701 5.26281 20.5753 3.89985 19.2329 3.07313C17.7101 2.13125 15.9484 1.57266 14.1815 1.32172C12.5676 1.09141 10.9262 1.04156 9.30025 1.17047C8.50447 1.23406 7.70869 1.33203 6.92666 1.48844C5.89713 1.69469 4.73525 2.04016 3.66791 2.56953C1.889 3.44781 0.371347 4.82797 0.168534 6.88703C0.0997842 7.59 0.190878 8.18297 0.630878 8.73469C0.694472 8.81375 0.768378 8.88422 0.845722 8.94953C0.868066 8.96844 0.892128 8.98563 0.917909 9.00453C0.978066 9.05094 1.04166 9.09219 1.10869 9.13C1.13447 9.14547 1.16025 9.16094 1.18947 9.17469C1.28228 9.22281 1.38025 9.26578 1.48338 9.30188L1.50057 9.30703C1.60025 9.34141 1.7051 9.36891 1.81166 9.39125C1.93213 9.41644 2.05373 9.43594 2.17603 9.44969C2.21213 9.45313 2.24478 9.45828 2.27916 9.46C2.39947 9.4686 2.52322 9.47547 2.64697 9.47547C2.80853 9.47547 2.9701 9.46516 3.1351 9.44969C3.18322 9.44453 3.23478 9.43766 3.28291 9.43078C3.39978 9.41703 3.51666 9.39985 3.63182 9.3775C3.68853 9.36719 3.74353 9.35688 3.80197 9.34484C3.87588 9.32938 3.94978 9.30875 4.02369 9.29156L3.95322 9.5975L2.23619 14.8002C2.23619 14.8002 1.88728 15.9534 1.8615 17.0534C1.834 18.1534 1.8615 18.7292 1.8976 19.3841C1.92166 19.812 2.21041 20.778 3.38947 20.778H4.2265L10.9984 7.97156L17.7703 20.778H18.6056C19.7863 20.778 20.0751 19.812 20.0992 19.3841C20.1353 18.7292 20.1628 18.1517 20.1353 17.0534C20.1078 15.9534 19.7606 14.8002 19.7606 14.8002L18.0435 9.5975L17.9731 9.28985C18.0504 9.30875 18.126 9.32938 18.2034 9.34656C18.2584 9.3586 18.3151 9.36891 18.3701 9.37922C18.487 9.39985 18.6056 9.41703 18.7224 9.4325C18.7706 9.43766 18.8187 9.44625 18.8685 9.45141C19.0335 9.46688 19.1968 9.47719 19.3584 9.47719C19.4821 9.47719 19.6042 9.47031 19.7228 9.46172L19.8276 9.45141C19.917 9.4411 20.0046 9.42906 20.0888 9.4136C20.1249 9.40672 20.1576 9.39985 20.1903 9.39469C20.2985 9.37063 20.4068 9.34485 20.5065 9.30875C20.5099 9.30703 20.5151 9.30703 20.5185 9.30531C20.6217 9.26922 20.7213 9.22625 20.8142 9.17641C20.8417 9.16266 20.8657 9.14719 20.8932 9.13172C20.9603 9.09391 21.0256 9.05094 21.0857 9.00453C21.1098 8.98563 21.1338 8.96844 21.1562 8.95125C21.2353 8.88594 21.3092 8.81547 21.371 8.73641C21.8093 8.18297 21.9004 7.58828 21.8317 6.88703Z" fill="#40C0E7"/>
<mask id="mask0_275_3257" style="mask-type:luminance" maskUnits="userSpaceOnUse" x="0" y="1" width="22" height="20">
<path d="M21.8317 6.88703C21.6701 5.26281 20.5753 3.89985 19.2329 3.07313C17.7101 2.13125 15.9484 1.57266 14.1815 1.32172C12.5676 1.09141 10.9262 1.04156 9.30025 1.17047C8.50447 1.23406 7.70869 1.33203 6.92666 1.48844C5.89713 1.69469 4.73525 2.04016 3.66791 2.56953C1.889 3.44781 0.371347 4.82797 0.168534 6.88703C0.0997842 7.59 0.190878 8.18297 0.630878 8.73469C0.694472 8.81375 0.768378 8.88422 0.845722 8.94953C0.868066 8.96844 0.892128 8.98563 0.917909 9.00453C0.978066 9.05094 1.04166 9.09219 1.10869 9.13C1.13447 9.14547 1.16025 9.16094 1.18947 9.17469C1.28228 9.22281 1.38025 9.26578 1.48338 9.30188L1.50057 9.30703C1.60025 9.34141 1.7051 9.36891 1.81166 9.39125C1.93213 9.41644 2.05373 9.43594 2.17603 9.44969C2.21213 9.45313 2.24478 9.45828 2.27916 9.46C2.39947 9.4686 2.52322 9.47547 2.64697 9.47547C2.80853 9.47547 2.9701 9.46516 3.1351 9.44969C3.18322 9.44453 3.23478 9.43766 3.28291 9.43078C3.39978 9.41703 3.51666 9.39985 3.63182 9.3775C3.68853 9.36719 3.74353 9.35688 3.80197 9.34484C3.87588 9.32938 3.94978 9.30875 4.02369 9.29156L3.95322 9.5975L2.23619 14.8002C2.23619 14.8002 1.88728 15.9534 1.8615 17.0534C1.834 18.1534 1.8615 18.7292 1.8976 19.3841C1.92166 19.812 2.21041 20.778 3.38947 20.778H4.2265L10.9984 7.97156L17.7703 20.778H18.6056C19.7863 20.778 20.0751 19.812 20.0992 19.3841C20.1353 18.7292 20.1628 18.1517 20.1353 17.0534C20.1078 15.9534 19.7606 14.8002 19.7606 14.8002L18.0435 9.5975L17.9731 9.28985C18.0504 9.30875 18.126 9.32938 18.2034 9.34656C18.2584 9.3586 18.3151 9.36891 18.3701 9.37922C18.487 9.39985 18.6056 9.41703 18.7224 9.4325C18.7706 9.43766 18.8187 9.44625 18.8685 9.45141C19.0335 9.46688 19.1968 9.47719 19.3584 9.47719C19.4821 9.47719 19.6042 9.47031 19.7228 9.46172L19.8276 9.45141C19.917 9.4411 20.0046 9.42906 20.0888 9.4136C20.1249 9.40672 20.1576 9.39985 20.1903 9.39469C20.2985 9.37063 20.4068 9.34485 20.5065 9.30875C20.5099 9.30703 20.5151 9.30703 20.5185 9.30531C20.6217 9.26922 20.7213 9.22625 20.8142 9.17641C20.8417 9.16266 20.8657 9.14719 20.8932 9.13172C20.9603 9.09391 21.0256 9.05094 21.0857 9.00453C21.1098 8.98563 21.1338 8.96844 21.1562 8.95125C21.2353 8.88594 21.3092 8.81547 21.371 8.73641C21.8093 8.18297 21.9004 7.58828 21.8317 6.88703Z" fill="white"/>
</mask>
<g mask="url(#mask0_275_3257)">
<path d="M4.29347 10.5359C4.29347 10.5359 3.39972 10.6356 2.91675 10.5823L3.18487 5.44157L9.32769 3.59219L14.1282 4.04766C14.1282 4.04766 18.205 5.57563 18.3116 5.65641C18.4182 5.73719 19.7055 8.90141 19.7055 8.90141L20.0819 10.5995C20.0819 10.5995 18.7946 10.7422 17.6275 10.5153L4.29347 10.5359Z" fill="#2F2F2F"/>
</g>
<path d="M10.4722 9.76593C10.5754 9.72468 10.73 9.68687 10.8452 9.69375C11.0669 9.70578 11.3505 9.68171 11.5396 9.77968C11.7854 9.90687 11.7475 10.2025 11.7252 10.395C11.7132 10.5102 11.6582 10.627 11.5121 10.682C11.4468 10.7095 11.3643 10.7233 11.268 10.7319C11.1236 10.7422 10.9793 10.7405 10.8332 10.737C10.498 10.7284 10.2952 10.6253 10.2866 10.3572C10.2832 10.187 10.2299 9.8639 10.4722 9.76593ZM10.4516 11.3661C10.5582 11.3214 10.7197 11.2802 10.8418 11.287C11.0704 11.3008 11.3643 11.2733 11.5619 11.3798C11.8197 11.5173 11.7802 11.8405 11.7579 12.0484C11.7441 12.1739 11.6874 12.2994 11.5361 12.3612C11.4674 12.3887 11.3832 12.4059 11.2818 12.4128C11.1305 12.4248 10.981 12.4214 10.8297 12.418C10.4791 12.4094 10.2677 12.2959 10.2591 12.0055C10.2539 11.8216 10.1972 11.4727 10.4516 11.3661ZM10.431 13.1072C10.5427 13.0591 10.7094 13.0127 10.8383 13.0212C11.0772 13.0367 11.3849 13.0058 11.5929 13.1227C11.8593 13.2722 11.8197 13.6245 11.7957 13.8514C11.7836 13.9872 11.7218 14.1264 11.5654 14.1952C11.4932 14.2244 11.4038 14.2433 11.2989 14.2519C11.1408 14.2639 10.9844 14.2622 10.8263 14.2587C10.4585 14.2484 10.2402 14.1264 10.2299 13.8067C10.223 13.6056 10.1646 13.2223 10.431 13.1072ZM8.9666 15.8245C8.94254 15.9723 8.86863 16.1253 8.69848 16.1992C8.62113 16.2336 8.52832 16.2542 8.41488 16.2628C8.2516 16.2766 8.08489 16.2731 7.91989 16.268C7.5366 16.2577 7.31317 16.1236 7.32863 15.773C7.33723 15.5512 7.30285 15.1353 7.58988 15.0081C7.70848 14.9548 7.89067 14.905 8.02129 14.9153C8.27051 14.9308 8.59535 14.8981 8.80504 15.027C9.07488 15.1886 9.00613 15.5736 8.9666 15.8245ZM9.05426 13.8514C9.03363 13.9872 8.96488 14.1264 8.8016 14.1952C8.7277 14.2244 8.63832 14.2433 8.53004 14.2519C8.37364 14.2639 8.21551 14.2622 8.05739 14.2587C7.69129 14.2484 7.47817 14.1264 7.49192 13.8067C7.49879 13.6056 7.46442 13.2241 7.7377 13.1089C7.85113 13.0608 8.02301 13.0144 8.1502 13.023C8.38738 13.0384 8.69848 13.0075 8.89785 13.1244C9.15738 13.2722 9.09207 13.6245 9.05426 13.8514ZM9.13676 12.0484C9.11613 12.1739 9.0491 12.2994 8.89442 12.3612C8.82395 12.3887 8.73801 12.4059 8.6366 12.4128C8.48535 12.4248 8.3341 12.4214 8.18457 12.418C7.83395 12.4094 7.62942 12.2959 7.64145 12.0055C7.64832 11.8198 7.61395 11.4709 7.87692 11.3644C7.9852 11.3197 8.1502 11.2784 8.27051 11.2853C8.49738 11.2991 8.79473 11.2716 8.98723 11.3781C9.23301 11.5191 9.17285 11.8405 9.13676 12.0484ZM9.21067 10.395C9.19004 10.5102 9.12645 10.627 8.97692 10.682C8.90988 10.7095 8.82738 10.7233 8.72942 10.7319C8.58504 10.7422 8.44067 10.7405 8.29457 10.737C7.95942 10.7284 7.76348 10.6253 7.77379 10.3572C7.77895 10.187 7.74457 9.8639 7.99895 9.76593C8.10207 9.72468 8.25848 9.68687 8.37535 9.69375C8.59363 9.70578 8.87895 9.68171 9.06457 9.77968C9.30176 9.90515 9.24504 10.2025 9.21067 10.395ZM11.8352 15.8245C11.8214 15.9723 11.7579 16.1253 11.5929 16.1992C11.5189 16.2336 11.4244 16.2542 11.3127 16.2628C11.1477 16.2766 10.9827 16.2731 10.8194 16.268C10.4361 16.2577 10.2041 16.1236 10.1955 15.773C10.1904 15.5512 10.1285 15.1353 10.4086 15.0081C10.5255 14.9548 10.7008 14.905 10.8332 14.9153C11.0841 14.9308 11.4072 14.8981 11.6238 15.027C11.9005 15.1886 11.8575 15.5736 11.8352 15.8245ZM12.8011 10.3572C12.7857 10.187 12.71 9.8639 12.9489 9.76593C13.0486 9.72468 13.1999 9.68687 13.3185 9.69375C13.5402 9.70578 13.8204 9.68171 14.018 9.77968C14.2707 9.90687 14.2552 10.2025 14.2449 10.395C14.2397 10.5102 14.1916 10.627 14.0507 10.6837C13.9871 10.7095 13.9063 10.725 13.81 10.7319C13.6657 10.7422 13.5213 10.7405 13.3769 10.737C13.0349 10.7267 12.8269 10.6253 12.8011 10.3572ZM13.0314 11.3661C13.1363 11.3214 13.2944 11.2802 13.4147 11.287C13.645 11.3008 13.9372 11.2733 14.1435 11.3798C14.4082 11.5173 14.3893 11.8405 14.3807 12.0484C14.3755 12.1739 14.3257 12.2994 14.1779 12.3612C14.1125 12.3887 14.0283 12.4059 13.9269 12.4128C13.7774 12.4248 13.6261 12.4214 13.4766 12.418C13.1225 12.4094 12.906 12.2959 12.8785 12.0055C12.8613 11.8216 12.7822 11.4727 13.0314 11.3661ZM13.1225 13.1072C13.2291 13.0591 13.3958 13.0127 13.523 13.0212C13.7619 13.0367 14.0696 13.0058 14.2844 13.1227C14.5629 13.2722 14.5439 13.6245 14.5354 13.8514C14.5319 13.9872 14.4786 14.1264 14.3257 14.1952C14.2552 14.2244 14.1675 14.2433 14.0627 14.2519C13.9063 14.2639 13.7482 14.2622 13.59 14.2587C13.2222 14.2484 12.9936 14.1264 12.9661 13.8067C12.9472 13.6056 12.863 13.2223 13.1225 13.1072ZM14.7021 15.8245C14.6969 15.9723 14.6436 16.1253 14.4821 16.1992C14.4099 16.2336 14.3188 16.2542 14.2071 16.2628C14.0438 16.2766 13.8788 16.2731 13.7138 16.268C13.3271 16.2577 13.0882 16.1236 13.0572 15.773C13.0366 15.5512 12.9507 15.1353 13.2222 15.0081C13.3339 14.9548 13.5075 14.905 13.6399 14.9153C13.8908 14.9308 14.2105 14.8981 14.4374 15.027C14.7279 15.1886 14.7089 15.5736 14.7021 15.8245Z" fill="white"/>
<path d="M19.2157 15.6097C19.006 14.9652 18.8118 14.312 18.6038 13.6658C18.2669 12.6191 17.9472 11.5689 17.6275 10.517C16.5946 10.2369 15.5874 9.72125 15.0425 8.99078C14.4547 8.20531 14.6988 7.32875 14.8621 6.74953L14.8793 6.68422C14.7418 6.55875 14.3035 6.32328 12.9027 6.08609L12.7721 6.06375C12.4129 6.00015 12.0279 5.9675 11.019 5.9675H10.9811C9.97395 5.9675 9.58895 6.00015 9.22973 6.06375L9.09911 6.08609C7.70004 6.32156 7.26004 6.55875 7.12254 6.68422L7.14145 6.75297C7.30301 7.33219 7.54536 8.20703 6.95926 8.99078C6.40239 9.73844 5.35739 10.2627 4.2952 10.5377C3.97895 11.5827 3.66098 12.6259 3.32411 13.6658C3.11614 14.3137 2.92192 14.9652 2.71223 15.6097C2.6211 15.8891 2.55552 16.1761 2.51629 16.4673C2.38051 17.4195 2.48192 18.3769 2.47848 19.3514C2.47333 20.3912 2.98036 20.778 4.22645 20.778H17.7032C18.951 20.778 19.458 20.3912 19.4511 19.3514C19.446 18.3769 19.5491 17.4195 19.4133 16.4673C19.3704 16.182 19.3085 15.895 19.2157 15.6097ZM10.4724 9.76594C10.5755 9.72469 10.7302 9.68687 10.8454 9.69375C11.0671 9.70578 11.3507 9.68172 11.5397 9.77969C11.7855 9.90687 11.7477 10.2025 11.7254 10.395C11.7133 10.5102 11.6583 10.627 11.5122 10.682C11.4469 10.7095 11.3644 10.7233 11.2682 10.7319C11.1238 10.7422 10.9794 10.7405 10.8333 10.737C10.4982 10.7284 10.2954 10.6253 10.2868 10.3572C10.2833 10.187 10.23 9.8639 10.4724 9.76594ZM10.4518 11.3661C10.5583 11.3214 10.7199 11.2802 10.8419 11.287C11.0705 11.3008 11.3644 11.2733 11.5621 11.3798C11.8199 11.5173 11.7804 11.8405 11.758 12.0484C11.7443 12.1739 11.6875 12.2994 11.5363 12.3612C11.4675 12.3887 11.3833 12.4059 11.2819 12.4128C11.1307 12.4248 10.9811 12.4214 10.8299 12.418C10.4793 12.4094 10.2679 12.2959 10.2593 12.0055C10.2541 11.8216 10.1974 11.4727 10.4518 11.3661ZM10.4311 13.1072C10.5429 13.0591 10.7096 13.0127 10.8385 13.0212C11.0774 13.0367 11.385 13.0058 11.593 13.1227C11.8594 13.2722 11.8199 13.6245 11.7958 13.8514C11.7838 13.9872 11.7219 14.1264 11.5655 14.1952C11.4933 14.2244 11.4039 14.2433 11.2991 14.2519C11.141 14.2639 10.9846 14.2622 10.8265 14.2587C10.4586 14.2484 10.2404 14.1264 10.23 13.8067C10.2232 13.6056 10.1647 13.2223 10.4311 13.1072ZM8.96676 15.8245C8.9427 15.9723 8.86879 16.1253 8.69864 16.1992C8.62129 16.2336 8.52848 16.2542 8.41504 16.2628C8.25176 16.2766 8.08504 16.2731 7.92004 16.268C7.53676 16.2577 7.31333 16.1236 7.32879 15.773C7.33739 15.5512 7.30301 15.1353 7.59004 15.0081C7.70864 14.9548 7.89082 14.905 8.02145 14.9153C8.27067 14.9308 8.59551 14.8981 8.8052 15.027C9.07504 15.1886 9.00629 15.5736 8.96676 15.8245ZM9.05442 13.8514C9.03379 13.9872 8.96504 14.1264 8.80176 14.1952C8.72786 14.2244 8.63848 14.2433 8.5302 14.2519C8.37379 14.2639 8.21567 14.2622 8.05754 14.2587C7.69145 14.2484 7.47833 14.1264 7.49208 13.8067C7.49895 13.6056 7.46458 13.2241 7.73786 13.1089C7.85129 13.0608 8.02317 13.0144 8.15036 13.023C8.38754 13.0384 8.69864 13.0075 8.89801 13.1244C9.15754 13.2722 9.09223 13.6245 9.05442 13.8514ZM9.13692 12.0484C9.11629 12.1739 9.04926 12.2994 8.89458 12.3612C8.82411 12.3887 8.73817 12.4059 8.63676 12.4128C8.48551 12.4248 8.33426 12.4214 8.18473 12.418C7.83411 12.4094 7.62958 12.2959 7.64161 12.0055C7.64848 11.8198 7.61411 11.4709 7.87708 11.3644C7.98536 11.3197 8.15036 11.2784 8.27067 11.2853C8.49754 11.2991 8.79489 11.2716 8.98739 11.3781C9.23317 11.5191 9.17301 11.8405 9.13692 12.0484ZM9.21083 10.395C9.1902 10.5102 9.12661 10.627 8.97708 10.682C8.91004 10.7095 8.82754 10.7233 8.72958 10.7319C8.5852 10.7422 8.44082 10.7405 8.29473 10.737C7.95958 10.7284 7.76364 10.6253 7.77395 10.3572C7.77911 10.187 7.74473 9.8639 7.99911 9.76594C8.10223 9.72469 8.25864 9.68687 8.37551 9.69375C8.59379 9.70578 8.87911 9.68172 9.06473 9.77969C9.30192 9.90516 9.2452 10.2025 9.21083 10.395ZM11.8354 15.8245C11.8216 15.9723 11.758 16.1253 11.593 16.1992C11.5191 16.2336 11.4246 16.2542 11.3129 16.2628C11.1479 16.2766 10.9829 16.2731 10.8196 16.268C10.4363 16.2577 10.2043 16.1236 10.1957 15.773C10.1905 15.5512 10.1286 15.1353 10.4088 15.0081C10.5257 14.9548 10.701 14.905 10.8333 14.9153C11.0843 14.9308 11.4074 14.8981 11.624 15.027C11.9007 15.1886 11.8577 15.5736 11.8354 15.8245ZM12.8013 10.3572C12.7858 10.187 12.7102 9.8639 12.9491 9.76594C13.0488 9.72469 13.2 9.68687 13.3186 9.69375C13.5404 9.70578 13.8205 9.68172 14.0182 9.77969C14.2708 9.90687 14.2554 10.2025 14.245 10.395C14.2399 10.5102 14.1918 10.627 14.0508 10.6837C13.9872 10.7095 13.9065 10.725 13.8102 10.7319C13.6658 10.7422 13.5215 10.7405 13.3771 10.737C13.035 10.7267 12.8271 10.6253 12.8013 10.3572ZM13.0316 11.3661C13.1364 11.3214 13.2946 11.2802 13.4149 11.287C13.6452 11.3008 13.9374 11.2733 14.1436 11.3798C14.4083 11.5173 14.3894 11.8405 14.3808 12.0484C14.3757 12.1739 14.3258 12.2994 14.178 12.3612C14.1127 12.3887 14.0285 12.4059 13.9271 12.4128C13.7775 12.4248 13.6263 12.4214 13.4768 12.418C13.1227 12.4094 12.9061 12.2959 12.8786 12.0055C12.8615 11.8216 12.7824 11.4727 13.0316 11.3661ZM13.1227 13.1072C13.2293 13.0591 13.396 13.0127 13.5232 13.0212C13.7621 13.0367 14.0697 13.0058 14.2846 13.1227C14.563 13.2722 14.5441 13.6245 14.5355 13.8514C14.5321 13.9872 14.4788 14.1264 14.3258 14.1952C14.2554 14.2244 14.1677 14.2433 14.0629 14.2519C13.9065 14.2639 13.7483 14.2622 13.5902 14.2587C13.2224 14.2484 12.9938 14.1264 12.9663 13.8067C12.9474 13.6056 12.8632 13.2223 13.1227 13.1072ZM14.7022 15.8245C14.6971 15.9723 14.6438 16.1253 14.4822 16.1992C14.41 16.2336 14.319 16.2542 14.2072 16.2628C14.044 16.2766 13.879 16.2731 13.714 16.268C13.3272 16.2577 13.0883 16.1236 13.0574 15.773C13.0368 15.5512 12.9508 15.1353 13.2224 15.0081C13.3341 14.9548 13.5077 14.905 13.64 14.9153C13.891 14.9308 14.2107 14.8981 14.4375 15.027C14.728 15.1886 14.7091 15.5736 14.7022 15.8245Z" fill="#006CA2"/>
<path d="M21.8317 7.31501C21.5068 4.02188 17.8184 2.46469 15.0735 1.91641C14.1059 1.72391 13.0815 1.60188 12.0451 1.55376H12.0434C11.7168 1.53829 11.3885 1.53141 11.0603 1.53141C11.0413 1.53141 11.0207 1.52969 11.0035 1.52969C10.6804 1.52969 10.3556 1.53829 10.0307 1.55204C10.0084 1.55204 9.98603 1.55204 9.96197 1.55376C9.67322 1.56751 9.38447 1.58985 9.09916 1.61391C9.04416 1.61907 8.98744 1.62079 8.93244 1.62594C8.73994 1.64485 8.5526 1.67063 8.36353 1.69469C7.87713 1.75485 7.39416 1.82532 6.92838 1.91813C4.18182 2.46469 0.495097 4.02188 0.168534 7.31501C0.0997842 8.01798 0.190878 8.61094 0.630878 9.16438C0.694472 9.24344 0.768378 9.31219 0.845722 9.37922C0.868065 9.39813 0.892128 9.41532 0.917909 9.43422C0.978065 9.48063 1.04166 9.52188 1.10869 9.55969C1.13447 9.57516 1.16025 9.59063 1.18947 9.60438C1.28228 9.65251 1.38025 9.69547 1.48338 9.73157L1.50057 9.73672C1.63648 9.78172 1.7755 9.81677 1.9165 9.84157C2.00072 9.85704 2.08666 9.86907 2.17603 9.87938C2.21213 9.88282 2.24478 9.88797 2.27916 9.88969C2.39947 9.90001 2.52322 9.90516 2.64697 9.90516C2.80853 9.90516 2.9701 9.89485 3.1351 9.87938C3.18322 9.87423 3.23478 9.86735 3.28291 9.86048C3.39978 9.84673 3.51666 9.82954 3.63182 9.80719C3.68853 9.79688 3.74353 9.78657 3.80197 9.77454C3.91541 9.75047 4.02885 9.72297 4.14057 9.69204C4.19041 9.67829 4.24197 9.66626 4.2901 9.65079C4.39494 9.61985 4.49291 9.58376 4.59432 9.54766C4.64072 9.53047 4.69228 9.51673 4.73869 9.49954L4.75588 9.49438C4.90541 9.43594 5.04978 9.37063 5.18728 9.3036C5.22853 9.28298 5.26807 9.26063 5.3076 9.23829C5.40041 9.18844 5.4915 9.13516 5.57744 9.08016C5.62041 9.05438 5.66166 9.02688 5.69947 8.99938C5.78197 8.94266 5.85588 8.88594 5.92807 8.82579C6.05789 8.72489 6.17351 8.60696 6.27182 8.47516C6.63791 7.98532 6.42135 7.37688 6.27353 6.83376C6.13775 6.32672 6.52791 5.97782 7.0676 5.73376C7.75682 5.42266 8.6901 5.28516 9.08197 5.21813C9.13697 5.20782 9.19025 5.19922 9.24697 5.19063L9.29166 5.18547C9.33291 5.18032 9.3776 5.17344 9.42228 5.16829C9.42228 5.16829 9.43603 5.16829 9.44291 5.16657C9.49619 5.15969 9.55119 5.15454 9.61135 5.14938C9.62338 5.14766 9.63713 5.14766 9.64916 5.14594C9.70244 5.14079 9.75744 5.13735 9.81932 5.13391C9.84338 5.13219 9.86916 5.13219 9.89494 5.13048C9.9465 5.12876 9.99806 5.12532 10.0548 5.1236C10.0874 5.12188 10.1235 5.12188 10.1579 5.12016L10.3246 5.11501C10.3659 5.11501 10.4157 5.11501 10.4621 5.11329C10.5188 5.11157 10.5721 5.10985 10.6357 5.10985H11.3696C11.4315 5.10985 11.4899 5.11157 11.5467 5.11329C11.5913 5.11329 11.6412 5.11329 11.6824 5.11501L11.8526 5.12016C11.8853 5.12188 11.9196 5.12188 11.9506 5.1236C12.0107 5.12532 12.064 5.12876 12.1173 5.13219C12.1379 5.13391 12.1637 5.13391 12.186 5.13563C12.2479 5.13907 12.3063 5.14251 12.3631 5.14938C12.3717 5.14938 12.3837 5.1511 12.394 5.1511C12.4524 5.15626 12.5074 5.16141 12.5607 5.16829C12.5676 5.16829 12.5745 5.17001 12.5813 5.17001C12.626 5.17516 12.669 5.18204 12.712 5.18719L12.7549 5.19235C12.8099 5.20094 12.8649 5.20954 12.9217 5.21985C13.3187 5.2886 14.2674 5.42782 14.9601 5.74579C15.486 5.98813 15.8659 6.33532 15.7301 6.83547C15.584 7.3786 15.3657 7.98704 15.7335 8.47688C15.8023 8.57141 15.8899 8.66079 15.9828 8.74844C16.012 8.77594 16.0446 8.80172 16.0756 8.82751C16.1478 8.88766 16.2217 8.9461 16.3042 9.0011C16.342 9.0286 16.3849 9.0561 16.4245 9.08188C16.5121 9.13688 16.6015 9.18844 16.696 9.24001C16.7356 9.26063 16.7751 9.28297 16.8163 9.30532C16.9538 9.37407 17.0982 9.43766 17.2478 9.4961L17.2632 9.50126C17.2838 9.50985 17.3062 9.51501 17.3268 9.5236C17.4523 9.57001 17.5812 9.61469 17.7118 9.65251C17.7599 9.66798 17.8098 9.68001 17.8613 9.69376C17.9731 9.72469 18.0882 9.75219 18.2017 9.77626C18.2567 9.78829 18.3134 9.7986 18.3684 9.80891C18.4853 9.83126 18.6038 9.84673 18.7207 9.86219C18.7688 9.86735 18.817 9.87594 18.8668 9.8811C19.0318 9.89657 19.1951 9.90688 19.3567 9.90688C19.4804 9.90688 19.6024 9.90001 19.721 9.89141C19.7571 9.88969 19.7915 9.88454 19.8259 9.8811C19.9153 9.87079 20.0029 9.85876 20.0871 9.84329C20.1232 9.83641 20.1559 9.82954 20.1885 9.82438C20.2968 9.80032 20.4051 9.77454 20.5048 9.74016C20.5082 9.73844 20.5134 9.73672 20.5168 9.73672C20.6199 9.70063 20.7196 9.65766 20.8124 9.60954C20.8399 9.59579 20.864 9.58032 20.8915 9.56485C20.9585 9.52704 21.0238 9.48407 21.084 9.43766C21.1081 9.41876 21.1321 9.40157 21.1545 9.38266C21.2335 9.31735 21.3074 9.24688 21.3693 9.16782C21.8093 8.61266 21.9004 8.01798 21.8317 7.31501Z" fill="#006CA2"/>
<path d="M1.64316 5.69595C1.50222 5.75611 1.30456 6.01736 1.23066 6.1497C0.752845 7.00392 0.70472 8.45626 1.748 8.92033C2.27909 9.1558 3.02159 8.74501 2.61081 8.12111C2.48878 7.93548 2.23784 7.8633 2.07972 7.7172C1.56238 7.24283 1.75144 6.59142 1.79269 5.98642C1.81159 5.71314 1.74113 5.6547 1.64316 5.69595ZM16.8593 6.93345C16.6014 7.05892 16.5 7.39923 16.5705 7.6622C16.7269 8.2483 17.7393 7.86845 17.4075 7.21189C17.2528 6.90251 17.0363 6.84751 16.8593 6.93345Z" fill="white"/>
</svg>
