<svg width="16" height="17" viewBox="0 0 16 17" fill="none" xmlns="http://www.w3.org/2000/svg">
<g clip-path="url(#clip0_109_11038)">
<path d="M3.5 10.1211C3.83152 10.1211 4.14946 9.9894 4.38388 9.75498C4.6183 9.52056 4.75 9.20261 4.75 8.87109C4.75 8.53957 4.6183 8.22163 4.38388 7.98721C4.14946 7.75279 3.83152 7.62109 3.5 7.62109C3.16848 7.62109 2.85054 7.75279 2.61612 7.98721C2.3817 8.22163 2.25 8.53957 2.25 8.87109C2.25 9.20261 2.3817 9.52056 2.61612 9.75498C2.85054 9.9894 3.16848 10.1211 3.5 10.1211ZM9.25 8.87109C9.25 9.20261 9.1183 9.52056 8.88388 9.75498C8.64946 9.9894 8.33152 10.1211 8 10.1211C7.66848 10.1211 7.35054 9.9894 7.11612 9.75498C6.8817 9.52056 6.75 9.20261 6.75 8.87109C6.75 8.53957 6.8817 8.22163 7.11612 7.98721C7.35054 7.75279 7.66848 7.62109 8 7.62109C8.33152 7.62109 8.64946 7.75279 8.88388 7.98721C9.1183 8.22163 9.25 8.53957 9.25 8.87109ZM13.75 8.87109C13.75 9.20261 13.6183 9.52056 13.3839 9.75498C13.1495 9.9894 12.8315 10.1211 12.5 10.1211C12.1685 10.1211 11.8505 9.9894 11.6161 9.75498C11.3817 9.52056 11.25 9.20261 11.25 8.87109C11.25 8.53957 11.3817 8.22163 11.6161 7.98721C11.8505 7.75279 12.1685 7.62109 12.5 7.62109C12.8315 7.62109 13.1495 7.75279 13.3839 7.98721C13.6183 8.22163 13.75 8.53957 13.75 8.87109Z" fill="#21232C"/>
</g>
<defs>
<clipPath id="clip0_109_11038">
<rect width="16" height="16" fill="white" transform="translate(0 0.871094)"/>
</clipPath>
</defs>
</svg>
