<svg width="25" height="25" viewBox="0 0 25 25" fill="none" xmlns="http://www.w3.org/2000/svg">
<path d="M10.9805 9.69141C11.3905 9.69141 11.7305 10.0314 11.7305 10.4414C11.7305 11.1314 12.2905 11.6914 12.9805 11.6914C13.6705 11.6914 14.2305 11.1314 14.2305 10.4414C14.2305 10.0314 14.5705 9.69141 14.9805 9.69141C15.3905 9.69141 15.7305 10.0314 15.7305 10.4414C15.7305 11.7014 14.8805 12.7614 13.7305 13.0914V16.4414C13.7305 16.8514 13.3905 17.1914 12.9805 17.1914C12.5705 17.1914 12.2305 16.8514 12.2305 16.4414V13.0914C11.0805 12.7614 10.2305 11.6914 10.2305 10.4414C10.2305 10.0314 10.5705 9.69141 10.9805 9.69141Z" fill="#65686F"/>
<path d="M5.73047 9.88219C5.73047 6.02219 8.98047 2.74219 12.9805 2.74219C16.9805 2.74219 20.2305 6.02219 20.2305 9.88219C20.2305 11.5322 19.6305 12.9922 18.6505 14.1522C18.0805 14.8122 17.7305 15.5022 17.7305 16.1922V17.4722C17.7305 18.2522 17.3305 18.9422 16.7305 19.3422V20.4922C16.7305 21.7322 15.7305 22.7422 14.4805 22.7422H11.4805C10.2405 22.7422 9.23047 21.7422 9.23047 20.4922V19.3422C8.63047 18.9422 8.23047 18.2522 8.23047 17.4722V16.1922C8.23047 15.5022 7.88047 14.8122 7.31047 14.1522C6.33047 12.9922 5.73047 11.5322 5.73047 9.88219ZM12.9805 4.24219C9.80047 4.24219 7.23047 6.86219 7.23047 9.88219C7.23047 11.1522 7.68047 12.2822 8.46047 13.1822C9.12047 13.9622 9.73047 14.9922 9.73047 16.1922V17.4722C9.73047 17.8922 10.0705 18.2222 10.4805 18.2222H15.4805C15.8905 18.2222 16.2305 17.8922 16.2305 17.4722V16.1922C16.2305 14.9922 16.8405 13.9622 17.5005 13.1822C18.2805 12.2822 18.7305 11.1522 18.7305 9.88219C18.7305 6.86219 16.1605 4.24219 12.9805 4.24219ZM10.7305 20.4922C10.7305 20.9022 11.0705 21.2422 11.4805 21.2422H14.4805C14.8905 21.2422 15.2305 20.9022 15.2305 20.4922V19.7222H10.7305V20.4922Z" fill="#65686F"/>
</svg>
