<svg width="25" height="24" viewBox="0 0 25 24" fill="none" xmlns="http://www.w3.org/2000/svg">
<path d="M3.35725 3C2.94725 3 2.60725 3.34 2.60725 3.75V7.55C2.59725 11.42 2.58725 16.02 2.60725 19.02C2.60725 20.12 3.50725 21 4.60725 21H21.8573C22.2673 21 22.6073 20.66 22.6073 20.25V20.02C22.6073 19.95 22.5772 19.87 22.5072 19.82L15.6073 14.3C15.5072 14.22 15.3673 14.23 15.2773 14.33L11.8773 17.98C11.7873 18.08 11.6373 18.08 11.5373 18L8.86725 15.83C8.76725 15.74 8.60725 15.76 8.51725 15.86L5.54725 19.41C5.49725 19.47 5.42725 19.5 5.34725 19.5H4.60725C4.32725 19.5 4.10725 19.28 4.10725 19V18.48L8.60725 13.06L11.1973 15C11.4973 15.25 11.9572 15.22 12.2273 14.93L16.8573 9.91V12C16.8573 12.41 17.1973 12.75 17.6073 12.75C18.0173 12.75 18.3573 12.41 18.3573 12V8C18.3573 7.59 18.0173 7.25 17.6073 7.25H13.6073C13.1973 7.25 12.8573 7.59 12.8573 8C12.8573 8.41 13.1973 8.75 13.6073 8.75H15.8973L11.6073 13.4L9.08725 11.42C8.76725 11.16 8.28725 11.2 8.02725 11.52L4.10725 16.22V3.76C4.10725 3.35 3.76725 3.01 3.35725 3.01V3Z" fill="white"/>
</svg>
