<svg width="16" height="17" viewBox="0 0 16 17" fill="none" xmlns="http://www.w3.org/2000/svg">
<g clip-path="url(#clip0_109_11017)">
<path d="M6.75032 5.37109C6.75032 5.03957 6.88202 4.72163 7.11644 4.48721C7.35086 4.25279 7.6688 4.12109 8.00032 4.12109C8.33184 4.12109 8.64979 4.25279 8.88421 4.48721C9.11863 4.72163 9.25032 5.03957 9.25032 5.37109C9.25032 5.70261 9.11863 6.02056 8.88421 6.25498C8.64979 6.4894 8.33184 6.62109 8.00032 6.62109C7.6688 6.62109 7.35086 6.4894 7.11644 6.25498C6.88202 6.02056 6.75032 5.70261 6.75032 5.37109ZM8.00032 2.62109C6.48032 2.62109 5.25032 3.85109 5.25032 5.37109C5.25032 6.89109 6.48032 8.12109 8.00032 8.12109C9.52032 8.12109 10.7503 6.89109 10.7503 5.37109C10.7503 3.85109 9.52032 2.62109 8.00032 2.62109ZM8.00032 10.6211C9.81032 10.6211 11.3303 11.9111 11.6803 13.6211H4.32032C4.67032 11.9111 6.19032 10.6211 8.00032 10.6211ZM8.00032 9.12109C5.30032 9.12109 3.07032 11.1611 2.78032 13.7911C2.70032 14.5611 3.33032 15.1211 4.00032 15.1211H12.0003C12.6703 15.1211 13.3003 14.5611 13.2203 13.7911C12.9203 11.1611 10.7003 9.12109 8.00032 9.12109Z" fill="#21232C"/>
</g>
<defs>
<clipPath id="clip0_109_11017">
<rect width="16" height="16" fill="white" transform="translate(0 0.871094)"/>
</clipPath>
</defs>
</svg>
