<svg width="20" height="21" viewBox="0 0 20 21" fill="none" xmlns="http://www.w3.org/2000/svg">
<path d="M19.8684 10.7285C19.8693 10.0471 19.8113 9.36688 19.695 8.69531H10.1992V12.5465H15.638C15.5267 13.1616 15.2911 13.7479 14.9455 14.2702C14.5999 14.7924 14.1513 15.2398 13.6269 15.5852V18.0851H16.8728C18.7734 16.3449 19.8684 13.7714 19.8684 10.7285Z" fill="#4285F4"/>
<path d="M10.1997 20.4998C12.9169 20.4998 15.2049 19.6137 16.8733 18.086L13.6274 15.5861C12.7239 16.1944 11.5604 16.5416 10.1997 16.5416C7.57328 16.5416 5.34408 14.7834 4.54693 12.4141H1.20312V14.9903C2.0412 16.6465 3.32629 18.0387 4.91494 19.0116C6.50358 19.9844 8.33324 20.4997 10.1997 20.4998Z" fill="#34A853"/>
<path d="M4.54686 12.4136C4.12543 11.1721 4.12543 9.82757 4.54686 8.58603V6.00977H1.20305C0.498032 7.40296 0.130859 8.94059 0.130859 10.4998C0.130859 12.059 0.498032 13.5967 1.20305 14.9899L4.54686 12.4136Z" fill="#FBBC04"/>
<path d="M10.1997 4.45879C11.6356 4.43549 13.0231 4.97429 14.0623 5.95872L16.9362 3.10469C15.1139 1.40488 12.6996 0.471659 10.1997 0.500656C8.33324 0.500741 6.50358 1.01598 4.91494 1.98886C3.32629 2.96174 2.0412 4.35397 1.20312 6.0101L4.54693 8.58636C5.34408 6.21704 7.57328 4.45879 10.1997 4.45879Z" fill="#EA4335"/>
</svg>
