<svg width="205" height="211" viewBox="25 25 160 160" fill="none" xmlns="http://www.w3.org/2000/svg">
<path d="M49.8399 48.0962C55.1989 38.8142 65.1027 33.0962 75.8207 33.0962L116.18 33.0962C126.898 33.0962 136.802 38.8142 142.161 48.0962L162.34 83.0483C167.699 92.3303 167.699 103.766 162.34 113.048L142.161 148C136.802 157.282 126.898 163 116.18 163L75.8207 163C65.1027 163 55.1989 157.282 49.8399 148L29.6603 113.048C24.3013 103.766 24.3013 92.3303 29.6603 83.0483L49.8399 48.0962Z" fill="url(#paint0_linear_2541_18644)" fill-opacity="0.5"/>
<path d="M56.2918 58.4999C61.6508 49.2179 71.5546 43.4999 82.2726 43.4999L122.632 43.4999C133.35 43.4999 143.254 49.2179 148.613 58.4999L168.792 93.452C174.151 102.734 174.151 114.17 168.792 123.452L148.613 158.404C143.254 167.686 133.35 173.404 122.632 173.404L82.2726 173.404C71.5546 173.404 61.6508 167.686 56.2918 158.404L36.1122 123.452C30.7533 114.17 30.7533 102.734 36.1122 93.452L56.2918 58.4999Z" fill="url(#paint1_linear_2541_18644)"/>
<defs>
<linearGradient id="paint0_linear_2541_18644" x1="70" y1="45.5" x2="136" y2="169" gradientUnits="userSpaceOnUse">
<stop stop-color="#00C400"/>
<stop stop-color="#00AA00"/>
<stop offset="1" stop-color="#008000"/>
</linearGradient>
<linearGradient id="paint1_linear_2541_18644" x1="64.9521" y1="43.4999" x2="139.952" y2="173.404" gradientUnits="userSpaceOnUse">
<stop stop-color="#00C400"/>
<stop offset="1" stop-color="#008000"/>
</linearGradient>
</defs>
</svg>
