<svg width="216" height="205" viewBox="35 25 160 160" fill="none" xmlns="http://www.w3.org/2000/svg">
<path d="M56.2918 52.4999C61.6508 43.2179 71.5546 37.4999 82.2726 37.4999L122.632 37.4999C133.35 37.4999 143.254 43.2179 148.613 52.4999L168.792 87.452C174.151 96.734 174.151 108.17 168.792 117.452L148.613 152.404C143.254 161.686 133.35 167.404 122.632 167.404L82.2726 167.404C71.5546 167.404 61.6508 161.686 56.2918 152.404L36.1122 117.452C30.7533 108.17 30.7533 96.734 36.1122 87.452L56.2918 52.4999Z" fill="url(#paint0_linear_2541_18643)" fill-opacity="0.2"/>
<path d="M67.2918 52.4999C72.6508 43.2179 82.5546 37.4999 93.2726 37.4999L133.632 37.4999C144.35 37.4999 154.254 43.2179 159.613 52.4999L179.792 87.452C185.151 96.734 185.151 108.17 179.792 117.452L159.613 152.404C154.254 161.686 144.35 167.404 133.632 167.404L93.2726 167.404C82.5546 167.404 72.6508 161.686 67.2918 152.404L47.1122 117.452C41.7533 108.17 41.7533 96.734 47.1122 87.452L67.2918 52.4999Z" fill="url(#paint1_linear_2541_18643)"/>
<defs>
<linearGradient id="paint0_linear_2541_18643" x1="64.9521" y1="37.4999" x2="139.952" y2="167.404" gradientUnits="userSpaceOnUse">
<stop stop-color="#FF7A00"/>
<stop offset="1" stop-color="#CF6400"/>
</linearGradient>
<linearGradient id="paint1_linear_2541_18643" x1="75.9521" y1="37.4999" x2="150.952" y2="167.404" gradientUnits="userSpaceOnUse">
<stop stop-color="#FF7A00"/>
<stop offset="1" stop-color="#CF6400"/>
</linearGradient>
</defs>
</svg>
