<svg width="215" height="215" viewBox="35 20 160 160" fill="none" xmlns="http://www.w3.org/2000/svg">
<path d="M66.2918 52.4999C71.6508 43.2179 81.5546 37.4999 92.2726 37.4999L132.632 37.4999C143.35 37.4999 153.254 43.2179 158.613 52.4999L178.792 87.452C184.151 96.734 184.151 108.17 178.792 117.452L158.613 152.404C153.254 161.686 143.35 167.404 132.632 167.404L92.2726 167.404C81.5546 167.404 71.6508 161.686 66.2918 152.404L46.1122 117.452C40.7533 108.17 40.7533 96.734 46.1122 87.452L66.2918 52.4999Z" fill="url(#paint0_linear_2541_18642)"/>
<path d="M56.2918 62.4999C61.6508 53.2179 71.5546 47.4999 82.2726 47.4999L122.632 47.4999C133.35 47.4999 143.254 53.2179 148.613 62.4999L168.792 97.452C174.151 106.734 174.151 118.17 168.792 127.452L148.613 162.404C143.254 171.686 133.35 177.404 122.632 177.404L82.2726 177.404C71.5546 177.404 61.6508 171.686 56.2918 162.404L36.1122 127.452C30.7533 118.17 30.7533 106.734 36.1122 97.452L56.2918 62.4999Z" fill="url(#paint1_linear_2541_18642)" fill-opacity="0.2"/>
<defs>
<linearGradient id="paint0_linear_2541_18642" x1="74.9521" y1="37.4999" x2="149.952" y2="167.404" gradientUnits="userSpaceOnUse">
<stop stop-color="#EC31C7"/>
<stop offset="1" stop-color="#C837AB"/>
</linearGradient>
<linearGradient id="paint1_linear_2541_18642" x1="64.9521" y1="47.4999" x2="139.952" y2="177.404" gradientUnits="userSpaceOnUse">
<stop stop-color="#EC31C7"/>
<stop offset="1" stop-color="#C837AB"/>
</linearGradient>
</defs>
</svg>
